<mxfile modified="2022-01-27T15:20:01.519Z" host="app.diagrams.net" agent="5.0 (Macintosh; Intel Mac OS X 10_15_7) AppleWebKit/537.36 (KHTML, like Gecko) Chrome/97.0.4692.99 Safari/537.36" etag="9UcYT_7DIrDnW2jALixH" version="16.4.8" type="github">
  <diagram id="Ht1M8jgEwFfnCIfOTk4-" name="Page-1">
    <mxGraphModel dx="1426" dy="864" grid="1" gridSize="10" guides="1" tooltips="1" connect="1" arrows="1" fold="1" page="1" pageScale="1" pageWidth="1169" pageHeight="827" math="0" shadow="0">
      <root>
        <mxCell id="0" />
        <mxCell id="1" parent="0" />
        <mxCell id="FNksphohxSBePvAxf9_E-1" value="elevator group" style="fillColor=none;strokeColor=#5A6C86;dashed=1;verticalAlign=top;fontStyle=0;fontColor=#5A6C86;" parent="1" vertex="1">
          <mxGeometry x="90" y="70" width="950" height="530" as="geometry" />
        </mxCell>
        <mxCell id="oKBV9h8hUsyzSj8xuFSB-6" value="ui" style="fillColor=#EFF0F3;strokeColor=none;dashed=0;verticalAlign=top;fontStyle=0;fontColor=#232F3D;" parent="1" vertex="1">
          <mxGeometry x="810" y="110" width="80" height="480" as="geometry" />
        </mxCell>
        <mxCell id="FNksphohxSBePvAxf9_E-62" value="elevator" style="fillColor=#EFF0F3;strokeColor=none;dashed=0;verticalAlign=top;fontStyle=0;fontColor=#232F3D;" parent="1" vertex="1">
          <mxGeometry x="174" y="158" width="126" height="432" as="geometry" />
        </mxCell>
        <mxCell id="FNksphohxSBePvAxf9_E-2" value="" style="sketch=0;outlineConnect=0;fontColor=#232F3E;gradientColor=none;fillColor=#232F3D;strokeColor=none;dashed=0;verticalLabelPosition=bottom;verticalAlign=top;align=center;html=1;fontSize=12;fontStyle=0;aspect=fixed;pointerEvents=1;shape=mxgraph.aws4.internet_alt1;" parent="1" vertex="1">
          <mxGeometry x="100" y="80" width="78" height="48" as="geometry" />
        </mxCell>
        <mxCell id="FNksphohxSBePvAxf9_E-9" style="edgeStyle=orthogonalEdgeStyle;rounded=0;orthogonalLoop=1;jettySize=auto;html=1;" parent="1" source="FNksphohxSBePvAxf9_E-5" target="FNksphohxSBePvAxf9_E-2" edge="1">
          <mxGeometry relative="1" as="geometry">
            <Array as="points">
              <mxPoint x="220" y="120" />
            </Array>
          </mxGeometry>
        </mxCell>
        <mxCell id="FNksphohxSBePvAxf9_E-55" value="Creates" style="edgeLabel;html=1;align=center;verticalAlign=middle;resizable=0;points=[];" parent="FNksphohxSBePvAxf9_E-9" vertex="1" connectable="0">
          <mxGeometry x="-0.3824" y="1" relative="1" as="geometry">
            <mxPoint x="18" y="-20" as="offset" />
          </mxGeometry>
        </mxCell>
        <mxCell id="FNksphohxSBePvAxf9_E-41" style="edgeStyle=orthogonalEdgeStyle;rounded=0;orthogonalLoop=1;jettySize=auto;html=1;strokeColor=default;startArrow=classic;startFill=1;" parent="1" source="FNksphohxSBePvAxf9_E-5" target="FNksphohxSBePvAxf9_E-59" edge="1">
          <mxGeometry relative="1" as="geometry">
            <mxPoint x="340" y="359" as="targetPoint" />
            <Array as="points">
              <mxPoint x="310" y="209" />
              <mxPoint x="310" y="380" />
            </Array>
          </mxGeometry>
        </mxCell>
        <mxCell id="FNksphohxSBePvAxf9_E-5" value="" style="sketch=0;outlineConnect=0;fontColor=#232F3E;gradientColor=none;fillColor=#3F8624;strokeColor=none;dashed=0;verticalLabelPosition=bottom;verticalAlign=top;align=center;html=1;fontSize=12;fontStyle=0;aspect=fixed;pointerEvents=1;shape=mxgraph.aws4.generic;" parent="1" vertex="1">
          <mxGeometry x="200" y="193" width="78" height="78" as="geometry" />
        </mxCell>
        <mxCell id="FNksphohxSBePvAxf9_E-10" style="edgeStyle=orthogonalEdgeStyle;rounded=0;orthogonalLoop=1;jettySize=auto;html=1;" parent="1" source="FNksphohxSBePvAxf9_E-6" target="FNksphohxSBePvAxf9_E-2" edge="1">
          <mxGeometry relative="1" as="geometry">
            <Array as="points">
              <mxPoint x="160" y="329" />
            </Array>
          </mxGeometry>
        </mxCell>
        <mxCell id="FNksphohxSBePvAxf9_E-6" value="" style="sketch=0;outlineConnect=0;fontColor=#232F3E;gradientColor=none;fillColor=#3F8624;strokeColor=none;dashed=0;verticalLabelPosition=bottom;verticalAlign=top;align=center;html=1;fontSize=12;fontStyle=0;aspect=fixed;pointerEvents=1;shape=mxgraph.aws4.hardware_board;" parent="1" vertex="1">
          <mxGeometry x="200" y="290" width="78" height="78" as="geometry" />
        </mxCell>
        <mxCell id="FNksphohxSBePvAxf9_E-11" style="edgeStyle=orthogonalEdgeStyle;rounded=0;orthogonalLoop=1;jettySize=auto;html=1;" parent="1" source="FNksphohxSBePvAxf9_E-7" target="FNksphohxSBePvAxf9_E-2" edge="1">
          <mxGeometry relative="1" as="geometry" />
        </mxCell>
        <mxCell id="FNksphohxSBePvAxf9_E-57" value="Connects to" style="edgeLabel;html=1;align=center;verticalAlign=middle;resizable=0;points=[];" parent="FNksphohxSBePvAxf9_E-11" vertex="1" connectable="0">
          <mxGeometry x="0.779" relative="1" as="geometry">
            <mxPoint as="offset" />
          </mxGeometry>
        </mxCell>
        <mxCell id="FNksphohxSBePvAxf9_E-43" style="edgeStyle=orthogonalEdgeStyle;rounded=0;orthogonalLoop=1;jettySize=auto;html=1;startArrow=classic;startFill=1;strokeColor=default;" parent="1" source="FNksphohxSBePvAxf9_E-7" target="FNksphohxSBePvAxf9_E-59" edge="1">
          <mxGeometry relative="1" as="geometry">
            <mxPoint x="340" y="359" as="targetPoint" />
            <Array as="points">
              <mxPoint x="310" y="429" />
              <mxPoint x="310" y="380" />
            </Array>
          </mxGeometry>
        </mxCell>
        <mxCell id="FNksphohxSBePvAxf9_E-7" value="" style="sketch=0;outlineConnect=0;fontColor=#232F3E;gradientColor=none;fillColor=#3F8624;strokeColor=none;dashed=0;verticalLabelPosition=bottom;verticalAlign=top;align=center;html=1;fontSize=12;fontStyle=0;aspect=fixed;pointerEvents=1;shape=mxgraph.aws4.hardware_board;" parent="1" vertex="1">
          <mxGeometry x="200" y="390" width="78" height="78" as="geometry" />
        </mxCell>
        <mxCell id="FNksphohxSBePvAxf9_E-12" style="edgeStyle=orthogonalEdgeStyle;rounded=0;orthogonalLoop=1;jettySize=auto;html=1;" parent="1" source="FNksphohxSBePvAxf9_E-8" target="FNksphohxSBePvAxf9_E-2" edge="1">
          <mxGeometry relative="1" as="geometry">
            <mxPoint x="120" y="150" as="targetPoint" />
            <Array as="points">
              <mxPoint x="120" y="529" />
            </Array>
          </mxGeometry>
        </mxCell>
        <mxCell id="FNksphohxSBePvAxf9_E-44" style="edgeStyle=orthogonalEdgeStyle;rounded=0;orthogonalLoop=1;jettySize=auto;html=1;startArrow=classic;startFill=1;strokeColor=default;" parent="1" source="FNksphohxSBePvAxf9_E-8" target="FNksphohxSBePvAxf9_E-59" edge="1">
          <mxGeometry relative="1" as="geometry">
            <mxPoint x="340" y="359" as="targetPoint" />
            <Array as="points">
              <mxPoint x="310" y="529" />
              <mxPoint x="310" y="380" />
            </Array>
          </mxGeometry>
        </mxCell>
        <mxCell id="FNksphohxSBePvAxf9_E-8" value="" style="sketch=0;outlineConnect=0;fontColor=#232F3E;gradientColor=none;fillColor=#3F8624;strokeColor=none;dashed=0;verticalLabelPosition=bottom;verticalAlign=top;align=center;html=1;fontSize=12;fontStyle=0;aspect=fixed;pointerEvents=1;shape=mxgraph.aws4.hardware_board;" parent="1" vertex="1">
          <mxGeometry x="200" y="490" width="78" height="78" as="geometry" />
        </mxCell>
        <mxCell id="FNksphohxSBePvAxf9_E-13" value="services" style="fillColor=#EFF0F3;strokeColor=none;dashed=0;verticalAlign=top;fontStyle=0;fontColor=#232F3D;" parent="1" vertex="1">
          <mxGeometry x="440" y="110" width="360" height="480" as="geometry" />
        </mxCell>
        <mxCell id="FNksphohxSBePvAxf9_E-15" style="edgeStyle=orthogonalEdgeStyle;rounded=0;orthogonalLoop=1;jettySize=auto;html=1;" parent="1" source="FNksphohxSBePvAxf9_E-14" target="FNksphohxSBePvAxf9_E-2" edge="1">
          <mxGeometry relative="1" as="geometry">
            <Array as="points">
              <mxPoint x="313" y="140" />
              <mxPoint x="313" y="104" />
            </Array>
          </mxGeometry>
        </mxCell>
        <mxCell id="FNksphohxSBePvAxf9_E-56" value="Connects to" style="edgeLabel;html=1;align=center;verticalAlign=middle;resizable=0;points=[];" parent="FNksphohxSBePvAxf9_E-15" vertex="1" connectable="0">
          <mxGeometry x="0.4778" y="2" relative="1" as="geometry">
            <mxPoint x="91" y="14" as="offset" />
          </mxGeometry>
        </mxCell>
        <mxCell id="FNksphohxSBePvAxf9_E-14" value="" style="sketch=0;outlineConnect=0;fontColor=#232F3E;gradientColor=none;fillColor=#232F3D;strokeColor=none;dashed=0;verticalLabelPosition=bottom;verticalAlign=top;align=center;html=1;fontSize=12;fontStyle=0;aspect=fixed;pointerEvents=1;shape=mxgraph.aws4.traditional_server;" parent="1" vertex="1">
          <mxGeometry x="450" y="120" width="45" height="78" as="geometry" />
        </mxCell>
        <mxCell id="FNksphohxSBePvAxf9_E-19" style="edgeStyle=orthogonalEdgeStyle;rounded=0;orthogonalLoop=1;jettySize=auto;html=1;" parent="1" source="FNksphohxSBePvAxf9_E-16" target="FNksphohxSBePvAxf9_E-14" edge="1">
          <mxGeometry relative="1" as="geometry" />
        </mxCell>
        <mxCell id="FNksphohxSBePvAxf9_E-16" value="" style="sketch=0;outlineConnect=0;fontColor=#232F3E;gradientColor=none;fillColor=#D45B07;strokeColor=none;dashed=0;verticalLabelPosition=bottom;verticalAlign=top;align=center;html=1;fontSize=12;fontStyle=0;aspect=fixed;pointerEvents=1;shape=mxgraph.aws4.container_3;" parent="1" vertex="1">
          <mxGeometry x="510" y="240" width="48" height="31" as="geometry" />
        </mxCell>
        <mxCell id="FNksphohxSBePvAxf9_E-20" style="edgeStyle=orthogonalEdgeStyle;rounded=0;orthogonalLoop=1;jettySize=auto;html=1;" parent="1" source="FNksphohxSBePvAxf9_E-17" target="FNksphohxSBePvAxf9_E-14" edge="1">
          <mxGeometry relative="1" as="geometry" />
        </mxCell>
        <mxCell id="FNksphohxSBePvAxf9_E-47" style="edgeStyle=orthogonalEdgeStyle;rounded=0;orthogonalLoop=1;jettySize=auto;html=1;startArrow=none;startFill=0;endArrow=classic;endFill=1;strokeColor=default;" parent="1" source="FNksphohxSBePvAxf9_E-17" target="FNksphohxSBePvAxf9_E-22" edge="1">
          <mxGeometry relative="1" as="geometry">
            <Array as="points">
              <mxPoint x="550" y="380" />
              <mxPoint x="550" y="380" />
            </Array>
          </mxGeometry>
        </mxCell>
        <mxCell id="oKBV9h8hUsyzSj8xuFSB-3" style="edgeStyle=orthogonalEdgeStyle;rounded=0;orthogonalLoop=1;jettySize=auto;html=1;endArrow=classic;endFill=1;startArrow=classic;startFill=1;entryX=0.5;entryY=1;entryDx=0;entryDy=0;" parent="1" source="FNksphohxSBePvAxf9_E-17" target="oKBV9h8hUsyzSj8xuFSB-1" edge="1">
          <mxGeometry relative="1" as="geometry">
            <Array as="points">
              <mxPoint x="533" y="290" />
            </Array>
          </mxGeometry>
        </mxCell>
        <mxCell id="FNksphohxSBePvAxf9_E-17" value="" style="sketch=0;outlineConnect=0;fontColor=#232F3E;gradientColor=none;fillColor=#D45B07;strokeColor=none;dashed=0;verticalLabelPosition=bottom;verticalAlign=top;align=center;html=1;fontSize=12;fontStyle=0;aspect=fixed;pointerEvents=1;shape=mxgraph.aws4.container_3;" parent="1" vertex="1">
          <mxGeometry x="510" y="310" width="46.45" height="30" as="geometry" />
        </mxCell>
        <mxCell id="FNksphohxSBePvAxf9_E-21" style="edgeStyle=orthogonalEdgeStyle;rounded=0;orthogonalLoop=1;jettySize=auto;html=1;" parent="1" source="FNksphohxSBePvAxf9_E-18" target="FNksphohxSBePvAxf9_E-14" edge="1">
          <mxGeometry relative="1" as="geometry" />
        </mxCell>
        <mxCell id="FNksphohxSBePvAxf9_E-48" style="edgeStyle=orthogonalEdgeStyle;rounded=0;orthogonalLoop=1;jettySize=auto;html=1;startArrow=none;startFill=0;endArrow=classic;endFill=1;strokeColor=default;" parent="1" source="FNksphohxSBePvAxf9_E-18" target="FNksphohxSBePvAxf9_E-28" edge="1">
          <mxGeometry relative="1" as="geometry">
            <Array as="points">
              <mxPoint x="600" y="525" />
            </Array>
          </mxGeometry>
        </mxCell>
        <mxCell id="FNksphohxSBePvAxf9_E-18" value="" style="sketch=0;outlineConnect=0;fontColor=#232F3E;gradientColor=none;fillColor=#D45B07;strokeColor=none;dashed=0;verticalLabelPosition=bottom;verticalAlign=top;align=center;html=1;fontSize=12;fontStyle=0;aspect=fixed;pointerEvents=1;shape=mxgraph.aws4.container_3;" parent="1" vertex="1">
          <mxGeometry x="570" y="380" width="48" height="31" as="geometry" />
        </mxCell>
        <mxCell id="FNksphohxSBePvAxf9_E-23" style="edgeStyle=orthogonalEdgeStyle;rounded=0;orthogonalLoop=1;jettySize=auto;html=1;" parent="1" source="FNksphohxSBePvAxf9_E-22" target="FNksphohxSBePvAxf9_E-14" edge="1">
          <mxGeometry relative="1" as="geometry">
            <Array as="points">
              <mxPoint x="473" y="466" />
            </Array>
          </mxGeometry>
        </mxCell>
        <mxCell id="FNksphohxSBePvAxf9_E-46" style="edgeStyle=orthogonalEdgeStyle;rounded=0;orthogonalLoop=1;jettySize=auto;html=1;startArrow=none;startFill=0;strokeColor=default;" parent="1" source="FNksphohxSBePvAxf9_E-22" target="FNksphohxSBePvAxf9_E-18" edge="1">
          <mxGeometry relative="1" as="geometry">
            <Array as="points">
              <mxPoint x="580" y="466" />
            </Array>
          </mxGeometry>
        </mxCell>
        <mxCell id="FNksphohxSBePvAxf9_E-22" value="" style="sketch=0;outlineConnect=0;fontColor=#232F3E;gradientColor=none;fillColor=#D45B07;strokeColor=none;dashed=0;verticalLabelPosition=bottom;verticalAlign=top;align=center;html=1;fontSize=12;fontStyle=0;aspect=fixed;pointerEvents=1;shape=mxgraph.aws4.container_3;" parent="1" vertex="1">
          <mxGeometry x="510" y="450" width="48" height="31" as="geometry" />
        </mxCell>
        <mxCell id="oKBV9h8hUsyzSj8xuFSB-4" value="serves" style="edgeStyle=orthogonalEdgeStyle;rounded=0;orthogonalLoop=1;jettySize=auto;html=1;startArrow=none;startFill=0;endArrow=classic;endFill=1;" parent="1" source="FNksphohxSBePvAxf9_E-24" target="oKBV9h8hUsyzSj8xuFSB-1" edge="1">
          <mxGeometry x="-0.3052" relative="1" as="geometry">
            <Array as="points">
              <mxPoint x="720" y="256" />
              <mxPoint x="720" y="258" />
            </Array>
            <mxPoint as="offset" />
          </mxGeometry>
        </mxCell>
        <mxCell id="FNksphohxSBePvAxf9_E-24" value="apache" style="text;strokeColor=none;fillColor=none;html=1;fontSize=24;fontStyle=1;verticalAlign=middle;align=center;" parent="1" vertex="1">
          <mxGeometry x="570" y="236.13" width="100" height="40" as="geometry" />
        </mxCell>
        <mxCell id="FNksphohxSBePvAxf9_E-25" value="mosquitto" style="text;strokeColor=none;fillColor=none;html=1;fontSize=24;fontStyle=1;verticalAlign=middle;align=center;" parent="1" vertex="1">
          <mxGeometry x="580" y="305.5" width="120" height="40" as="geometry" />
        </mxCell>
        <mxCell id="FNksphohxSBePvAxf9_E-26" value="elasticsearch" style="text;strokeColor=none;fillColor=none;html=1;fontSize=24;fontStyle=1;verticalAlign=middle;align=center;" parent="1" vertex="1">
          <mxGeometry x="645" y="380" width="150" height="40" as="geometry" />
        </mxCell>
        <mxCell id="FNksphohxSBePvAxf9_E-27" value="logstash" style="text;strokeColor=none;fillColor=none;html=1;fontSize=24;fontStyle=1;verticalAlign=middle;align=center;" parent="1" vertex="1">
          <mxGeometry x="620" y="445.5" width="95" height="40" as="geometry" />
        </mxCell>
        <mxCell id="FNksphohxSBePvAxf9_E-30" style="edgeStyle=orthogonalEdgeStyle;rounded=0;orthogonalLoop=1;jettySize=auto;html=1;" parent="1" source="FNksphohxSBePvAxf9_E-28" target="FNksphohxSBePvAxf9_E-14" edge="1">
          <mxGeometry relative="1" as="geometry" />
        </mxCell>
        <mxCell id="FNksphohxSBePvAxf9_E-28" value="" style="sketch=0;outlineConnect=0;fontColor=#232F3E;gradientColor=none;fillColor=#D45B07;strokeColor=none;dashed=0;verticalLabelPosition=bottom;verticalAlign=top;align=center;html=1;fontSize=12;fontStyle=0;aspect=fixed;pointerEvents=1;shape=mxgraph.aws4.container_3;" parent="1" vertex="1">
          <mxGeometry x="510" y="509" width="48" height="31" as="geometry" />
        </mxCell>
        <mxCell id="FNksphohxSBePvAxf9_E-29" value="kibana" style="text;strokeColor=none;fillColor=none;html=1;fontSize=24;fontStyle=1;verticalAlign=middle;align=center;" parent="1" vertex="1">
          <mxGeometry x="618" y="504.5" width="80" height="40" as="geometry" />
        </mxCell>
        <mxCell id="FNksphohxSBePvAxf9_E-42" style="edgeStyle=orthogonalEdgeStyle;rounded=0;orthogonalLoop=1;jettySize=auto;html=1;startArrow=classic;startFill=1;strokeColor=default;" parent="1" source="FNksphohxSBePvAxf9_E-59" target="FNksphohxSBePvAxf9_E-6" edge="1">
          <mxGeometry relative="1" as="geometry">
            <mxPoint x="340" y="359" as="sourcePoint" />
            <Array as="points">
              <mxPoint x="310" y="380" />
              <mxPoint x="310" y="329" />
            </Array>
          </mxGeometry>
        </mxCell>
        <mxCell id="FNksphohxSBePvAxf9_E-45" style="edgeStyle=orthogonalEdgeStyle;rounded=0;orthogonalLoop=1;jettySize=auto;html=1;startArrow=classic;startFill=1;strokeColor=default;" parent="1" source="FNksphohxSBePvAxf9_E-59" target="FNksphohxSBePvAxf9_E-17" edge="1">
          <mxGeometry relative="1" as="geometry">
            <mxPoint x="393" y="359" as="sourcePoint" />
            <Array as="points">
              <mxPoint x="534" y="370" />
            </Array>
          </mxGeometry>
        </mxCell>
        <mxCell id="FNksphohxSBePvAxf9_E-34" style="edgeStyle=orthogonalEdgeStyle;rounded=0;orthogonalLoop=1;jettySize=auto;html=1;entryX=1;entryY=0.5;entryDx=0;entryDy=0;" parent="1" source="FNksphohxSBePvAxf9_E-33" target="oKBV9h8hUsyzSj8xuFSB-1" edge="1">
          <mxGeometry relative="1" as="geometry">
            <mxPoint x="820" y="256" as="targetPoint" />
          </mxGeometry>
        </mxCell>
        <mxCell id="FNksphohxSBePvAxf9_E-33" value="" style="sketch=0;outlineConnect=0;fontColor=#232F3E;gradientColor=none;fillColor=#232F3D;strokeColor=none;dashed=0;verticalLabelPosition=bottom;verticalAlign=top;align=center;html=1;fontSize=12;fontStyle=0;aspect=fixed;pointerEvents=1;shape=mxgraph.aws4.user;" parent="1" vertex="1">
          <mxGeometry x="941" y="218.5" width="78" height="78" as="geometry" />
        </mxCell>
        <mxCell id="FNksphohxSBePvAxf9_E-36" style="edgeStyle=orthogonalEdgeStyle;rounded=0;orthogonalLoop=1;jettySize=auto;html=1;" parent="1" source="FNksphohxSBePvAxf9_E-35" target="oKBV9h8hUsyzSj8xuFSB-8" edge="1">
          <mxGeometry relative="1" as="geometry">
            <mxPoint x="918" y="525" as="targetPoint" />
          </mxGeometry>
        </mxCell>
        <mxCell id="FNksphohxSBePvAxf9_E-35" value="" style="sketch=0;outlineConnect=0;fontColor=#232F3E;gradientColor=none;fillColor=#232F3D;strokeColor=none;dashed=0;verticalLabelPosition=bottom;verticalAlign=top;align=center;html=1;fontSize=12;fontStyle=0;aspect=fixed;pointerEvents=1;shape=mxgraph.aws4.user;" parent="1" vertex="1">
          <mxGeometry x="941" y="472" width="78" height="78" as="geometry" />
        </mxCell>
        <mxCell id="FNksphohxSBePvAxf9_E-52" value="user" style="text;strokeColor=none;fillColor=none;html=1;fontSize=24;fontStyle=1;verticalAlign=middle;align=center;" parent="1" vertex="1">
          <mxGeometry x="930" y="178.5" width="100" height="40" as="geometry" />
        </mxCell>
        <mxCell id="FNksphohxSBePvAxf9_E-53" value="admin" style="text;strokeColor=none;fillColor=none;html=1;fontSize=24;fontStyle=1;verticalAlign=middle;align=center;" parent="1" vertex="1">
          <mxGeometry x="930" y="432" width="100" height="40" as="geometry" />
        </mxCell>
        <mxCell id="FNksphohxSBePvAxf9_E-61" style="edgeStyle=orthogonalEdgeStyle;rounded=0;orthogonalLoop=1;jettySize=auto;html=1;startArrow=classic;startFill=1;endArrow=classic;endFill=1;strokeColor=default;" parent="1" source="FNksphohxSBePvAxf9_E-58" target="FNksphohxSBePvAxf9_E-5" edge="1">
          <mxGeometry relative="1" as="geometry">
            <Array as="points">
              <mxPoint x="377" y="180" />
              <mxPoint x="239" y="180" />
            </Array>
          </mxGeometry>
        </mxCell>
        <mxCell id="FNksphohxSBePvAxf9_E-58" value="" style="sketch=0;outlineConnect=0;fontColor=#232F3E;gradientColor=none;fillColor=#3F8624;strokeColor=none;dashed=0;verticalLabelPosition=bottom;verticalAlign=top;align=center;html=1;fontSize=12;fontStyle=0;aspect=fixed;pointerEvents=1;shape=mxgraph.aws4.http_protocol;" parent="1" vertex="1">
          <mxGeometry x="345.25" y="222.25" width="67.75" height="67.75" as="geometry" />
        </mxCell>
        <mxCell id="FNksphohxSBePvAxf9_E-59" value="" style="sketch=0;outlineConnect=0;fontColor=#232F3E;gradientColor=none;fillColor=#3F8624;strokeColor=none;dashed=0;verticalLabelPosition=bottom;verticalAlign=top;align=center;html=1;fontSize=12;fontStyle=0;aspect=fixed;pointerEvents=1;shape=mxgraph.aws4.mqtt_protocol;" parent="1" vertex="1">
          <mxGeometry x="345.25" y="346" width="68" height="68" as="geometry" />
        </mxCell>
        <mxCell id="oKBV9h8hUsyzSj8xuFSB-5" style="edgeStyle=orthogonalEdgeStyle;rounded=0;orthogonalLoop=1;jettySize=auto;html=1;startArrow=classic;startFill=1;endArrow=classic;endFill=1;" parent="1" source="oKBV9h8hUsyzSj8xuFSB-1" target="FNksphohxSBePvAxf9_E-58" edge="1">
          <mxGeometry relative="1" as="geometry">
            <Array as="points">
              <mxPoint x="430" y="230" />
              <mxPoint x="430" y="256" />
            </Array>
          </mxGeometry>
        </mxCell>
        <mxCell id="oKBV9h8hUsyzSj8xuFSB-1" value="" style="shape=image;verticalLabelPosition=bottom;verticalAlign=top;imageAspect=0;aspect=fixed;image=data:image/png,iVBORw0KGgoAAAANSUhEUgAAAMgAAADICAYAAACtWK6eAAAAGXRFWHRTb2Z0d2FyZQBBZG9iZSBJbWFnZVJlYWR5ccllPAAAAyNpVFh0WE1MOmNvbS5hZG9iZS54bXAAAAAAADw/eHBhY2tldCBiZWdpbj0i77u/IiBpZD0iVzVNME1wQ2VoaUh6cmVTek5UY3prYzlkIj8+IDx4OnhtcG1ldGEgeG1sbnM6eD0iYWRvYmU6bnM6bWV0YS8iIHg6eG1wdGs9IkFkb2JlIFhNUCBDb3JlIDUuNi1jMDE0IDc5LjE1Njc5NywgMjAxNC8wOC8yMC0wOTo1MzowMiAgICAgICAgIj4gPHJkZjpSREYgeG1sbnM6cmRmPSJodHRwOi8vd3d3LnczLm9yZy8xOTk5LzAyLzIyLXJkZi1zeW50YXgtbnMjIj4gPHJkZjpEZXNjcmlwdGlvbiByZGY6YWJvdXQ9IiIgeG1sbnM6eG1wTU09Imh0dHA6Ly9ucy5hZG9iZS5jb20veGFwLzEuMC9tbS8iIHhtbG5zOnN0UmVmPSJodHRwOi8vbnMuYWRvYmUuY29tL3hhcC8xLjAvc1R5cGUvUmVzb3VyY2VSZWYjIiB4bWxuczp4bXA9Imh0dHA6Ly9ucy5hZG9iZS5jb20veGFwLzEuMC8iIHhtcE1NOkRvY3VtZW50SUQ9InhtcC5kaWQ6OTk2QkI4RkE3NjE2MTFFNUE4NEU4RkIxNjQ5MTYyRDgiIHhtcE1NOkluc3RhbmNlSUQ9InhtcC5paWQ6OTk2QkI4Rjk3NjE2MTFFNUE4NEU4RkIxNjQ5MTYyRDgiIHhtcDpDcmVhdG9yVG9vbD0iQWRvYmUgUGhvdG9zaG9wIENDIChNYWNpbnRvc2gpIj4gPHhtcE1NOkRlcml2ZWRGcm9tIHN0UmVmOmluc3RhbmNlSUQ9InhtcC5paWQ6NjU2QTEyNzk3NjkyMTFFMzkxODk4RDkwQkY4Q0U0NzYiIHN0UmVmOmRvY3VtZW50SUQ9InhtcC5kaWQ6NjU2QTEyN0E3NjkyMTFFMzkxODk4RDkwQkY4Q0U0NzYiLz4gPC9yZGY6RGVzY3JpcHRpb24+IDwvcmRmOlJERj4gPC94OnhtcG1ldGE+IDw/eHBhY2tldCBlbmQ9InIiPz5WHowqAAAXNElEQVR42uxda4xd1XVe53XvvD2eGQ/lXQcKuDwc2eFlCAGnUn7kT6T86J/+aNTgsWPchJJYciEOCQ8hF+G0hFCIHRSEqAuJBCqRaUEIEbmBppAIBGnESwZje8COZ+y587j3PLq+ffadGJix53HvPevcuz60xPjec89ZZ+39nf04+9vLSZKEFArFzHA1BAqFEkShUIIoFEoQhUIJolAoQRQKJYhCoQRRKJQgCoUSRKFQKEEUCiWIQrFo+Gv/8/YH+f/nsMWSHHMChyhxqPTTdyncWyJ3ScD/ztipiB3wXSqu6P17avN+TyFC5ggv4tRnmoxWTP1+5F+Mz17GPvPl49EKBWd3UsfXllPiso8VcYtmPba3fNuKrBVXrGFCbrdPwXndFL49ltI367roOpSUI4pGypv9s7q+ltj6JxqOQ07Bo/DgxGb2/a8cX0CnAWXJ5etz2TqdHiXHKlKj9w6i9XX8Ic41DmI8FVHhmmXk85MmRhCzJoiTWnig9LfJRHihgydxzAxJhBr7Bh/hK3yu+p9568FliTJF2aKMZfVd/kQOcKP6OBmS9+Rjm4zJ6faoeN0gOUn61MncLX4CJ+MRhe+P/dRxhfew2Df4CF/hs4jWg8vQYUKYMuWyRRkLjeHQ8YP0Z9mekVjA8Qj3VVcuoeDiXu63lkUE0ym6FA5PXBaNVr7qtPumGyPR4Bt8hK/wWUR5chn6XJYoU5StUHL8l+XEx2axhkS6yk+chJuP4rXLyOkIKJkS0B67adcqfL/0Y4pixxSysK6V8Yl9Mz7i3272NRFlhzJsu24Z5l9E9Ahmwfrpoj7uw3fZtktsRZKjIXnndlLxin7+W8ZTBwPf6I+Tg9HwxK2Ob8citbCoBoaxBxMCvsFH+CqjHCtUvLzflKWUcpwB91gupG5f9/Rtx39ZZBtmWyJtphKzHTQW0diP36b4aJmcLj/zGaSkHJPb4SWFi/tOJd8bTqd9s48VBRh4RKeUX/vjgXg8cpyCmz05xkJylxSoa8M5RF0eJaVIIkGOsg2yTc3UgpD94psiWxEOqDNYoOIXuHnGwE5AXUTFi46FTnRw4l/dwEm7/pSxcYnCF/gE3zInh52RRJkVP7/MlKFQcgCbjifHTAQBfsb2qsgBO3e1Cpf3UXBej3nRJKKrxU/rcH/pKzz4vNIQuRJTEmZklbg6EL4SPsE3GQPzinmfhbJDGQolB+r8w58abs5y8DqRt4ABeptLRR7koY9NleybEYw/MPisvF/ayT1/SvDewcnIcG32wfiCAbEvoCZyGaGsitdyz6XdTctQJq6fcT5mloNfYvu5yFZkpEz+RT0UrFoqpxVBV+vQxIrkaPnrbqdvXs6hcjbU+Jq4Nvvwd/BFRNeq2npwWfkX95iyE9p6PM72P/MhCPANTBSKu5WITHcC074Y9CUTkYglKBgcV/aVtlM5Kpp/RHFjDdfka7MP/2wG6m72661QNigjlBXKTGBtsjWKNs5atCf44Uds3xc5YD8Wknd2BxWuGjCzIxLWQzlFj+IjU108OL7bafM5sm5DDdfka/8T+9AJXyTMpqFsUEYoK5SZ0NbjVlvX500Q4Ha2A+JuCcEvhVS8qp/8MzspHhMSfO7mVPaP35BMRp9JsCQldbX+hmvxNfnamzJfqVvtWnGZoGxQRigroYs6UbfvOGHn4ORVkTaIbEWwtqg3MNO+Zql0JGCdVuCayhDuG9uJB7vp+oR17FbZc+NauCauLWLmKkqXr6NsUEYoK6GtxwY6CXXnEs0n2faIHLCPhhR8bikFKwRN+xZddHWu5a7Ol9yCZ2ZwHKdOxufGNeKRqS/hmnLWW1VMmQSrl5oyEkqOPbZu02IJAsic9sU7B+5uF9cOmqUfeLOdOaAZYb/CA+M/Ic9NxUoYMNfD/PT84f7xB807EAnrrbgMUBZt1w1SEpCIqfjF1Om5EuQNth0iu1r8tPLP76LCpX2yWpHDk2dGH018p6brtD5hOHf04cR3okOTZ0lqPVAW3gVdlMhdrfsTW6drRhDgRrYJcbeKZQxTkenvegNt6YBQwrQvOxG+P3ZHEia9TuClS9Br1XKge8XnxLlxjelzZ/2w4tijDMxyoHIsVQg1zvYPcy7KeZx4jG2zyFakFJF7Whu1XT2QvhfJeryeVNdplYPo4Pi9hKd7VVxVC8O5cH4+N65hXgoKuGfEHmWAskjGxI49Ntu6XHOCAD9ie1PcLSepjDNY00fB8m6KpSyJx/jgg9LfJEfLK40818w+LXY5e5zKaMfKl+DcIlSCZp0cd3U59igDI4+WOa2LunvfvDoD9RrcNLqAjDy3yzfrtKqbAkggSDIZmSlYxzz9a8BaJ101zF2rh3BuSTJaCKGMDEGujHbedXch0X2ebbdEkkDC6a9cQoWVguS53P0JP5xcHY1W/tppD9KxgrdAw5QxnwPn4nOukrPeqkzBJb0m9oJltLtt3a07QYD1IkMAeS7/hw0BXMhzJwXJc/eV7kuiyIN8OOGuUhLP06JUeoxz4FxiZLRouTsDM9WO2OdBRtsIgrzHtk3kgH00JO+cTipc2S9jqyCaluf2xwcnfuB6LndHuEsSzdP4N/gtzoFzSZHRIsaQQiPmidyXgttsnW0YQYDvsh2ROGBPxkMqXjNA/qlCFsnZ8UdlX+kfk0pymlnMWH2JOBfz0sWI+C3OMS1dzPphhPVWHOPC5wdMzIUOzFFHb1lwB2ARF+ZOPt0gshWBPLe/wCRZlu6CIkSei/cE0fD4g2ZbVWceyxH5WPwGvzXrrSTJaDnG7oBoGS3qaCULggCPsv1W5IAd8tzLllJwvpx1WthMIfyg9OVotHy1WVQ4V37wsfgNfkuSZLQcW8Q4lruU/RVbRykrggDXiwwN3uQWnXTa1xMkz2W/on2lndNajpNtAGePw2/MOicBMlqs+8K7GBNbjrFgGe2iX0nUgiAvs+0S2YpgndaFPVRc3SdmVanZlfGjifOiw5PrT/oGvPpG/vDkEH4jZ70Vt86rl5rYimmdP41/s3Uzc4Isup9XNxwvz+0tyNAlONPrtO6hctR+QnluKqNt52O3pxvtClhvxTH0egtmEwbBMlrUxU21OFGtCHKYbavIATv3j90z26kIea4QZRtahfhIuT0anrjH7O3rpjNVHzPIaLG3Lh8Tj5TbRQihjlNyehxTwTLarbZOiiEIcBfbPnGhMtroChXW9JN/VqeYdyPEY4nwwPj6ZCL8C1T+T61JhDqRv8MxZgwlJG2BxzEsrBmgeEzseqt9ti6SNIIA8t6wm901eFDZ66d7M4UkQ56LVgTTvvtKaRqFqoTWymjxGb6LpUzrImYcuzaOIWKJmAptPWpaB2sd+V+yvSB1wB6s7qXgwiUyBpbJdBqFq6MjU18mKCKhRsTyEbx558/wnRmYJzLiV+DYBat6JQ/MX7B1UCxBAKHy3IQrH6W7MhY9MWkUMNAN948/8Mm35/jMDIKlpC3gmBWQtsAjifkE61b36kGQP7DdL7KrVZXnXiYpjYKZxj09Gh7f4kB4yIa/8ZmU1brIIYiYIXaJ3Nbjflv3xBME+DZbSVwIzfIIK89dJkSea18Ihu+XflD9yPztCJnW5Ri5VRntpNh8giVb5ygvBIHu9yaRrchYRO6fFU0CSTPQlDLte6zshx9O3g3D3yJajySd4EDaAsQMsRPaetxk61zty+YTCXRqjf9jO19cOLnyYV+p8QffpcreMXJ7BeRgh77Ds6SIYhGbMBgB2tld1DW0nGL4VxbZfKBbdUHdhol1dl7mOi0MOjttGgWT11lAwU9r1mMSsX0oxwSxgYyWOvKXtiAvBPkV239I7GqZdVqX9FDw2V5+UoYipn2nt/WRMK3LMQlW9poYCZ7WfcrWsdwSBNggMrRYdcLdhjas0+q28lzJOc8bOU7jWLh2AwzEyLxclYm6Z2ZuBEE+YLtTZEVA9tzPdBh5biJ3q5rGD8yRjXbNAPkcm0RuyjTUqf3NQBDge2yHJFaGeDyi4tUD5J3WIXmzs8Y9NDgG3un80OCYIDZCHxqHbJ2iZiEIGmnB8twgzYIkd7vMxiBON59GLJyBQLKMdiM1qOPXyMn2f2f7X5EDdshzkUbhAtED0oZMXCAGiIXgtAW/YXusURdr9NsoufLcgmP20zKy2ErrNSNGRuunMUAshL7zABq61q/RBPkd2yNSn57+X3ZTQZA8t7H3H5p7RwwEt6KP2DrUtAQBIIUsiwt99Kf+tydFntuocVhVRltNWyBTRlumGslopRNkhO1mkRVlLCT3jHYzqyU48WSN+1ZWRou0BZDRyp3Ju9nWnaYnCHA3216JlQWy0gKy557dJSaNQn0nKNL1VrhnwTLavbbOUKsQBBApzzVpFHqsPFdIGoW6AfeG7cMwrcv3TC0io80LQZ5me07kU3WkYqSlhYvkpFGoz8C8bO7RyGjlpi14ztaVliMIIFOeizQKbpI+WdsDGfLcWvcmsaK53b4gdUW3lENZXjxrgrzNdq/IAftohbzzOql4eV/zjUUcu96K7w33KFhGi7rxVisTBEBSxWPiiqYqz71mGfmDQuS5tSIHstHyPZnd7+XKaI+RgKSxEggySWmKaXkVaSwi5xSbRmGiSdZpxVZGy/eEexMso73R1o2WJwiwk+11kQNZrNO6oo+Cc7vz39Wy07q4l+CKfnNvQu/ndVsnSAkifcCOAXq7R8W1y9JdRvI87QvfnTRtgdPeujLavBLkv9meEPnUHS2Tf1EPFT67lOKRnE77munrsrkH/+IeydPXqAO/VoLMDMhz5T2irTzXpFHoKeRPnluV0XYX0mlduTLamIRJtKUR5CDbbSIrGPfX/eUdVFyTQ3luku6OaNIW/HmH5LQFt9k6oAQ5Ab7PNiyxkmGndUhRvTNyJM9F1wrZaM9IZbQmG63MocewxIejRIKg+DaKbEXGI3KWBtT2hUFKyonUZeEfB3xkX4vsM3wXvIx/IwmMqCu0WH/B9qLIpzG6Wp/rpWBFj/x1WnaCAb4G7LPgad0XbZmTEmTukDnti0yzgZvKcwNPtDzXyGjZR5ONFincVEbbVAR5je0hkU/lkTL5F3TZzQ2EvjysJr1hH/0LuiVPTz9ky1oJsgB8iwQsN5hplISns5Hn9hXl9eurMlr2zUzrVsQuk5m0ZUxKkIXhKNsWkQN2yHNPhzx3WbqQMRZGYCOjXWZ8FDzjtsWWsRJkEfgh2zvyOvhWnovsucu75GTPtdlo4RN8i+W+s3nHli0pQRaPIXEeVeW53V46YJciz2Uf4IvxiX0juW/9h/JQ8fJCkGfZnpE5YK9QsHIJBZcIkOdW141d3Gt8EiyjfcaWqRKk6Z84kOc6duODjmzluUZGyz4g6Q18UhltaxHkXbbtIgfsRyvknQt5bobZc6dltP3Gl0SudmW7LUslSJ1mPUbFeWVUepDnDpB3SgazRtW0BXxt+ABfhE7rypyVbCKCTLF9U2QrgjQKg3b7zskGv3eI0+XsuDZ8EJy2YJMtQyVIHfEztldFDtghz728j4LzGphGoZq2gK9ZMDuwiH3ngTJ7OG+VLY8EAeTKc9ts9lwk42zEOi2st+JrYZIA1xYso12Xx4qWV4K8xPZzka3ISCrPDVY1YJ1WtfVYZWW0ctdbPW7LTAnSQHyDJCoykEYhTNdpuUsK6YDZqQ85cG5cw6y3CsWmLYBXG/NayfJMkI8oVR/KG7AfC8k7u4MKVw2kM1r1eB2RpDNXuAauJVhGe6stKyVIBrid7YA4r6o5N5BG4cxOI3mtaeWtymj53LiG4FwmKJs78lzB8k4QVIsN4ryqynN7AzP1ShXIc2tYg3GuSpJO6/aKltHK3KWmhQgCPMm2R+SAfTSkANlzV9Rw2rc6MDcyWtHZaPfYsiElSPaQOYVYiSnxiIprB8kpeGn+v8U2mZD8FjxzTpybKjqtqwQ5Od5g2yGyq4Xsued3UeHSvsW3IlUZLZ8L5xSctmCHLRMliCBgN/AJcV7F6SpbjBe8gUWkUaimLeBzmOUsU2JltOMkcbd+JQiNkYB8ErNVbPe0Nmq72i4kXMiwNUnfe+AcOJfgfCWbbVkoQQTiR2xvivPKynODNX0ULF9AGoVq2gL+Lc4hWEaL2N/XTBWq2Qgic3BYled2+ekeVfOV51az0WKNF59DsIx2XbNVpmYkyPNsuyWSBBJYf+USKsxHnlvNRsu/8WXLaHfb2CtBcoD1Ir2CPJf/wxSt2xmkupGT9c6QtoCPNdO66FfJldGub8aK1KwEeY9tm8gB+2hI3jmdVLii/+RbBdktfHAsfpPIfSm4zcZcCZIjfJftiMQBO1IQQBrrn3qCRYZ20SOOMTLacbHrrRDjW5q1EjUzQbiTTzeIbEUgz+232XNne59RfX+CbLT9omW0iHFFCZJPPMr2W5EDdshzL1tKwfkzrNOqrrfi73CMYBntKzbGpATJL64X6RXWZRVtxlnP+VgaBZO2wEu/wzGatkAJUk+8zLZLZCuCdVoXciux+rhVuXYVMD7Dd7Hc9Va7bGyVIE0Amf3kaXnuIHm9qTwXhr/xmWAZbUXk+E4JsmAcZtsqcsAOee6Z7VS08lwY/sZngmW0W21MlSBNhLvY9onzCqtIxipUuKqf3L6iMfyNz4RO6+6zsWwJ+NRawNvep8S1IhMxucie+8VT0o+6PIqPiB17rG+lCtNqBPkl2wts14gbsCONwqVLzT8Fr7d6wcawZeBS60Hm1GSSTu+a6d5EY6cEyQ5/YLtf4oCd4iQ1ma3H/TZ2SpAWwLfZSqSYK0o2ZqQEaQ1AN32T1vs54yYbMyVIC+GBVuwyLLBL+kCr3rzb4oV/vdZ/jZESZHb8iqS9F5GFp2yMlCAtjCENgcZGCTI79rPdqWH4FO60sVGCKOh7bIc0DNM4ZGNCShAFEFKOsyDVARttTJQgGoJpPMb2Gw2DicFjGgYlyExYpyHQGChBZsfv2B5p4ft/xMZAoQSZFZso3TKo1VC2965QgpwQI2w3t+B932zvXaEEOSnuZtvbQve7196zQgkyZ6zXe1UoQWbH02zPtcB9PmfvVaEEmTeG9B6VIIrZ8RbbvU18f/fae1QoQRYMJKU81oT3dYwkJj1VguQOk9REaY2Pw4323hRKkEVjJ9vrTXQ/r9t7UihBaobr9V6UIIrZ8Wu2J5rgPp6w96JQgtQcG2jmhGl5QWzvQaEEqQsOst2WY/9vs/egUILUtZIN59Dv4ZyTWwmSEyDnUx7luRtJar4qJUjT4RdsL+bI3xetzwolSMOwTn1Vgihmx2tsD+XAz4esrwolSMPxLZK9XGPS+qhQgmSCo2xbBPu3xfqoUIJkhh+yvSPQr3esbwolSOYYUp+UIIrZ8SzbM4L8ecb6pFCC6BNbWw8lSB7wLtt2AX5st74olCDikPWskfRZNSVIi2OKst2+c5P1QaEEEYuH2V7N4Lqv2msrlCDisa5FrqkEUSwIL7E93sDrPW6vqVCC5AaN0l/kVZ+iBGlxfMR2awOuc6u9lkIJkjvcwXagjuc/YK+hUILkEgnVdxeRDfYaCiVIbvEk2546nHePPbdCCZJ7rMvJORVKkEzwBtuOGp5vhz2nQgnSNMBu6uM1OM84Nedu80qQFscY1SYfx2Z7LoUSpOlwH9ubi/j9m/YcCiWIDth1YK4EaUU8z7Z7Ab/bbX+rUII0PdY36DcKJUgu8R7btnkcv83+RqEEaRncwnZkDscdsccqlCAthQrbDXM47gZ7rEIJ0nJ4lO2VE3z/ij1GoQRpWaxb4HcKJUhL4GW2XTN8vst+p1CCtDw+Oc6Y6/hEoQRpCRxm23rcv7fazxRKEIXFXZRuwBDZvxUC4GsIREHflguDkyQqaVYotIulUChBFAoliEKhBFEolCAKhRJEoVCCKBRKEIVCCaJQKJQgCoUSRKFQgigUShCFIhP8vwADACog5YM65zugAAAAAElFTkSuQmCC" parent="1" vertex="1">
          <mxGeometry x="817.5" y="225" width="65" height="65" as="geometry" />
        </mxCell>
        <mxCell id="oKBV9h8hUsyzSj8xuFSB-9" style="edgeStyle=orthogonalEdgeStyle;rounded=0;orthogonalLoop=1;jettySize=auto;html=1;exitX=0;exitY=0.5;exitDx=0;exitDy=0;entryX=1;entryY=0.5;entryDx=0;entryDy=0;startArrow=classic;startFill=1;endArrow=classic;endFill=1;" parent="1" source="oKBV9h8hUsyzSj8xuFSB-8" target="FNksphohxSBePvAxf9_E-29" edge="1">
          <mxGeometry relative="1" as="geometry" />
        </mxCell>
        <mxCell id="oKBV9h8hUsyzSj8xuFSB-8" value="" style="shape=image;verticalLabelPosition=bottom;verticalAlign=top;imageAspect=0;aspect=fixed;image=data:image/svg+xml,PHN2ZyB4bWxucz0iaHR0cDovL3d3dy53My5vcmcvMjAwMC9zdmciIGlkPSJMYXllcl8xIiB2aWV3Qm94PSIwIDAgODAgODAiIHdpZHRoPSIyNTAwIiBoZWlnaHQ9IjI1MDAiPjxzdHlsZT4uc3Qwe2ZpbGw6I2U5NDc4Yn0uc3Qxe2ZpbGw6IzNlYmViMH0uc3Qye2ZpbGw6IzM3YTU5NX0uc3Qze2ZpbGw6IzM1MzUzNX0uc3Q0e2ZpbGw6bm9uZX08L3N0eWxlPjxwYXRoIGNsYXNzPSJzdDAiIGQ9Ik0xOS42IDMzLjFjNy4zIDAgMTQuMiAxLjkgMjAuMiA1LjFsMjEuNC0yNS43SDE4Ljh2NTEtMzAuNGguOHoiLz48cGF0aCBjbGFzcz0ic3QxIiBkPSJNMzkuOCAzOC4ybC0yMSAyNS4zdjRoNDIuM2MtMi40LTEyLjYtMTAuNC0yMy4zLTIxLjMtMjkuM3oiLz48cGF0aCBjbGFzcz0ic3QyIiBkPSJNMzkuOCAzOC4ybC0yMSAyNS4zdjRoNy41bDIwLjQtMjQuNnMtMS40LTEuMS0zLjMtMi41Yy0xLjQtMS0zLjYtMi4yLTMuNi0yLjJ6Ii8+PHBhdGggY2xhc3M9InN0MyIgZD0iTTE5LjYgMzMuMWgtLjh2MzAuNGwyMS0yNS4zYy02LTMuMi0xMi45LTUuMS0yMC4yLTUuMXoiLz48cGF0aCBjbGFzcz0ic3Q0IiBkPSJNMCAwaDgwdjgwSDB6Ii8+PC9zdmc+" parent="1" vertex="1">
          <mxGeometry x="810" y="472" width="78" height="78" as="geometry" />
        </mxCell>
        <mxCell id="ZprljvVMKkMxfd43Fgqr-1" value="" style="shape=image;verticalLabelPosition=bottom;verticalAlign=top;imageAspect=0;aspect=fixed;image=data:image/png,iVBORw0KGgoAAAANSUhEUgAAAlkAAAGvCAYAAABo28DeAAAAGXRFWHRTb2Z0d2FyZQBBZG9iZSBJbWFnZVJlYWR5ccllPAAAA/NpVFh0WE1MOmNvbS5hZG9iZS54bXAAAAAAADw/eHBhY2tldCBiZWdpbj0i77u/IiBpZD0iVzVNME1wQ2VoaUh6cmVTek5UY3prYzlkIj8+IDx4OnhtcG1ldGEgeG1sbnM6eD0iYWRvYmU6bnM6bWV0YS8iIHg6eG1wdGs9IkFkb2JlIFhNUCBDb3JlIDUuNi1jMTQ1IDc5LjE2MzQ5OSwgMjAxOC8wOC8xMy0xNjo0MDoyMiAgICAgICAgIj4gPHJkZjpSREYgeG1sbnM6cmRmPSJodHRwOi8vd3d3LnczLm9yZy8xOTk5LzAyLzIyLXJkZi1zeW50YXgtbnMjIj4gPHJkZjpEZXNjcmlwdGlvbiByZGY6YWJvdXQ9IiIgeG1sbnM6eG1wTU09Imh0dHA6Ly9ucy5hZG9iZS5jb20veGFwLzEuMC9tbS8iIHhtbG5zOnN0UmVmPSJodHRwOi8vbnMuYWRvYmUuY29tL3hhcC8xLjAvc1R5cGUvUmVzb3VyY2VSZWYjIiB4bWxuczp4bXA9Imh0dHA6Ly9ucy5hZG9iZS5jb20veGFwLzEuMC8iIHhtbG5zOmRjPSJodHRwOi8vcHVybC5vcmcvZGMvZWxlbWVudHMvMS4xLyIgeG1wTU06T3JpZ2luYWxEb2N1bWVudElEPSJ1dWlkOjVEMjA4OTI0OTNCRkRCMTE5MTRBODU5MEQzMTUwOEM4IiB4bXBNTTpEb2N1bWVudElEPSJ4bXAuZGlkOjdDNkU3MUQ5QTUwQzExRTk5RTBCOTFCODRDOUI5NjRDIiB4bXBNTTpJbnN0YW5jZUlEPSJ4bXAuaWlkOjdDNkU3MUQ4QTUwQzExRTk5RTBCOTFCODRDOUI5NjRDIiB4bXA6Q3JlYXRvclRvb2w9IkFkb2JlIElsbHVzdHJhdG9yIENDIDIwMTcgKE1hY2ludG9zaCkiPiA8eG1wTU06RGVyaXZlZEZyb20gc3RSZWY6aW5zdGFuY2VJRD0idXVpZDplZGRmZjc1ZS0zZjE4LWM5NGUtOThkNC1kMzJmOTc3ZGM0YzgiIHN0UmVmOmRvY3VtZW50SUQ9InhtcC5kaWQ6MzY3ZGQwMjUtY2JhYS00MTFiLWE1NDktYTFkZDBjNzAwZThlIi8+IDxkYzp0aXRsZT4gPHJkZjpBbHQ+IDxyZGY6bGkgeG1sOmxhbmc9IngtZGVmYXVsdCI+bW9ieTwvcmRmOmxpPiA8L3JkZjpBbHQ+IDwvZGM6dGl0bGU+IDwvcmRmOkRlc2NyaXB0aW9uPiA8L3JkZjpSREY+IDwveDp4bXBtZXRhPiA8P3hwYWNrZXQgZW5kPSJyIj8+g6whIAAAVJJJREFUeNrs3QecHWW9//HfnLO9J7vJbnpPNo2EFroUuQKKIhoVC8S/XSzX3rj2a694bVfFa7DLqiiIFUVQaiCQhLAJ6XU32d7bOef/e+acQAhJdubUOTOf9+v1OHE5M3v2mTkz3/PMM89jCQA41Lh67SRdvELLpVpWapmhJRSwaoho2aPlES1/0XJLc9OaTo4OAMeyqAIADsJVvS4+qeV1WgqpkWcY0vJdLZ8ibAEgZAFwE7BW6+IHWqqpjZM6pOU6DVp/pioAGCGqAMBJAtaHdHELAcuRyVru0Dp7M1UBwKAlC8CJAtY7dXEjNZGU1zQ3rfkp1QAQsgDg2IB1ri7u1hKmNpJi+mmdoUHrcaoCCC5uFwI4NmAV6OJ7BKyUlEi8MzwAQhYAPOWVWpZSDSk7XwPr5VQDQMgCgCPeShWkzfVUARBc9MkC8JTG1WsbdHGQmkibUS01zU1rBqgKIHhoyQJwtPOogrQyA7eeSTUAwVRAFQA4ysKk1rIsidXWa5kkseJi/9RGTP+04SGx2lu1HE52K4u0/JNDCyBkAQi2Wtc5pLRMostOl1ilP8crjZn/mT5brK4OCW96WGRk2O0mJnBYAcHE7UIAyX/xKiqWyKnn+DZgPSNs1UyUyGnniIRdfzct5bACCFkA4Ep07iKRkuBkiFhZhURnz2fHAyBkAcjk2SMs0fppwQuWU2bYfdAAgJAFICNMXywJB3BQ+KJikcIiDgAAhCwAmQobwQ0asaJi9j8AQhYAAAAhCwAAgJAFAAAAQhYAAEAWMeI7gOyIRsXqbLOXtnBYYhPq3A2H4JVtAAAhC4BXmClprLbWZ/wsNmW6RBavzPk2zNhX0cUr2EkA0orbhQCywurrefYPe3s8sQ2rt5sdBICQBQAAQMgCAAAgZAEAAICQBQAAQMgCAAAgZAEAAICQBQAAQMgCAAAgZAEAAICQBQAAQMgCAAAgZAEAAICQBQAAQMgCAAAgZAEAAICQBQAAQMgCAAAgZAEAAICQBQAAQMgCAAAgZAEAAICQBQAAQMgCAAAgZAEAAICQBQAAQMgCAAAgZAEAAICQBQAAQMgCAAAgZAEAABCyACCTYkXFz/5hcXFebgMAnCigCgBkQ3TZaWK17NeUE0t8xQtJtGF6Xm4DAAhZADwjVlImsdkLfLENAHCC24UAAACELAAAAEIWAAAAIQsAAACELAC5Njoa2D/dGh1h/wMgZAHIUNAY7BeJRoP3h49puBwZ5gAAQMgCkCGRiFiHDwbvpHn0GFsAQMgCkAnh7c0iQbp1NjQooZ1b2fEACFkAMh86wuvvF2twwPd/qtXfa/+tQn8sAA4x4nvANK5eW6WLidQETqDKdfjo65HwA3fZU9PEaieLFJfYU9X4gulzZlqv2lufORUPABCyoKGqQhcv03KVlnO1TKJWkIkwEjqwR8QUAAAhy+fhqlgX79XyPi0TqBEAAAhZSD1gLdLFLVqWUxsAABCykJ6AdZYu/ii0XgEAkFM8XeivgLWIgAUAACEL6Q1YRRK/RUjAAgCAkIU0eo/QBwsAAEIW0qdx9dpyiT9FCAAACFlIIzMOVi3VAAAAIQvp9SKqAAAAQhbS7xyqAAAAb2GcrDyX6I/VkMy6seqJEpsyXWIVlRq3w/6plLExsXq6xDqwR6yBvpQ3Fystl9i0mRKrmqCfGB99ZKJRe9Jj6+A+sbraU9tWOCzRKTPicxcWFYtYlj/qyMxVODwkVlurhFr2xecyBABCVmC4H7IhFJLoouX2RdGvYjUTRWbMkdCOZgnt3p58DtFtROcv8U9oOLaeqmpE9DiwNECEmzckFSJildUSWX6GSEmpPw8m/ftidfUSmzlPQhsf0mDaJwDg6HJLFQQvKEcXLvN1wHqKBqPovMUSnTY7uYCldRRdsNS3AesZQalhukQaT3G/XkmZRFae7d+AdfTfWlYe/1tNSx0AELLwrAtFVY1Ep84M1N8cnd8oUljkMroWaMBaEqxjQ4NWrMbdQ6rReaZuC4NTScUlEp2zgBMJAEIWjnMhnTI9eH90WAPTJHfd1sztISkoDN7x0TDNVb3GJjUEro6i9dMC0boJ9xpXr63X8hMtC6kNELKCGLLKK4P5h5dVUE9O/u4K5393rLTM7t8XOCZ8c8sQx3eTlldr2aRB68taqqkSQhaCdoEIYnhwe7vQT09bZurvLiwM7MfI9fEE39NA9WZdvODIp0PLe7U8aX6uhWstIQsAACQRsObr4ivH+U+TtHxXyyP6mouoKUIWAABwHrBM8++PtZSf5GUrtPxDX9ukZQ61RsgCAADj+4iWsx2+9qVantCg9TEtdOwjZAEAgOPRoHS6Lj7mcjUTrj6pZYOufx616G+M+I6TstoPiTXQ/9T/j1VPiI8SnofbyGg99XaL1d2hbyzx/krL4sNA5OE2MmZ0REKHDj49qryZimfyVHdTFXllGyBgrV5rRuD9aQrXUTPMw926na/q8r+am9YMU6uELAQpYLW1SHjDumN+aEnk7Ivjj+/n0TYyanhIwg//+1lT0kSWniqx+mm538ay0yU2eUrOqym86WGxOtufFZ7tKXmyuY2NDz9rrka32wDU57QsSnEb5m7S+7RcqmHrFRq0tlKt/sLtQpw43AwOPvuHZsLcocG820ZG68m0sB1nzr+jW95yuo3+Xo8cTwPP/uHxfpbpbQylvg0EmwaiVbp4Rxo3uVLiTyBeR+0SsgAACGrAMmNg3ZSB66d5OnGtbv9bWhiIjZAFAEDgmEFGl2Vw+9dr+acGrSlUNSELAIBASASfG7Lwq8yQEOv0951KrROyAAAIgs9rqcjS75qq5R4NWldS7YQsAAB8S8POmbpw1TE9Vjsp1UnUTT+t3+nvfid7gJAFAIBffd5VwKqqkcgpqySy6jkSq56Y6nX6Rg1an2QXELIAAPAVDTiX6uISxytYlkQbV9jLWFmFRE47R6LzFqfaqmWm4vmGFos9QsgCAMAPAcuEms+5WSc6fY7EKiqfGbpmzZPI6eelOoCyGZvrR4lJqUHIAgAgr12txfl0AEXFEp2z8Lj/KVZZLZEzn5PqDAymX9jNBC1CFgAAeSvRivVRN+tE5y46+TyY+t/MVFfReY12C1eSXkXQImQBAJDPLpP4lDeOxMorJDplhrMwNmu+RE45U0NXYSpB63v00SJkAQCQjz7i5sXRue5ap2K1k+1+WlJSmuz7e52Wr7GbCFkAAOSNxtVrNf3IBY4DU1WNxCY1uP49pvVrzHSIr6hK9q3+p77XD7DHCFkAAOQLl61Yi5L/TcUlEjntXIlNnJTsFr6gQetadhkhCwAAT9PAslgXz3f6ersVK/mAFGc6xK9YJbG6+mS3cJO+7wvYe4QsAAC87B1uXhydPT89v9WyJLL8DIk1TEtmbdOD/rcatOax+whZAAB4joaUanExR2GsvFJidQ3pewMmaC1emWzQqpX4XIcV7ElCFgAAXvMaiU/M7IgZyT3tjgStSUkNWrpU4qPCM7QDIQsAAE95o+NXFpdIrH5aZt6FCVrLTku2r9dLtbyHXUnIAgDAExpXr12lixVOXx+dOjOVUdudBa1TzrA71ifh8/r3nMNeJWQBAOAF/89NAIpOm5WFq3Q4/tRhabnbNc3cPj/XoFXDbiVkAQCQMxpGinVxjdPX2wOPFhVn580VFklUg5YUup6Cx6TAb7F3CVkAAOTSlVoct/pEp83O6puLlZVLZNkZydyefJUGyGvYvYQsAABy5VXOA0+FxCbUZv0Nmt8ZXbA0mVW/pUGrgV1MyAIAIKsS40o5H+F9yvScvdfo9NnJjKE1Ucs32dOELAAAss3cKixx9ErT4b1hek7fbGTRKfYgqC69VMPkS9jVhCwAALJptdMXxmpq7fGxciocluiy0+wnD126UYNWObubkAUAQMZp6CjSxfMch6zJUzzxvk1LVnTBErermSa4T7DXCVkAAGTDBVqc3Xsztwo9ErIMM05XrHay29XepcGykd1OyAIAINOudPpC+1ZhYZGn3nyk8RSRAlfjZ5lBSr/IbidkIcdipWXH/SYnJaUutlF6/G2UZncbGa2nsnL9JD37o+SmY6pXtpH146msPC+3AV+53PGxU1fvvXdfXCIR98M6vLBx9doL2fWZV0AV4GQnlMjKs8Tq73sq2MSqJxz/InXCbTQcfxsl2d1Gxk9yZ5wvVleHvtnYU4HHVTO+V7aRyW/cy06X0OEW/UckcfYpcH3rxSvbgD9o0JhqFnkdsiQ+pESsZa9Yne1uVvuK/v1nNjetiXEkELKQqw/vxEnJzgLvuW1ktJ4qquzih21kjJkaxEyo64dtwC8ucfzZMgOQlpZ59g+JLlwu4Yfu1n9Ena5yupartNzKYZA53C4EAATVRY5DVu0kT/8hsfIKic6Y63a1jzeuXmtxGBCyAABIt+c4DjE5mEbHrejs+W4nrV6p5YUcBoQsAADSpnH1WjPVzAJHLzb9QGvqvP9HhQskOmeh27U+wNFAyAJSoqdIKgHA0VY5faHdz7EgP7owm/6Gpv+YC+dp4Dybw4GQhXQYGeHvdiIyFsx6cvN3B/VYMqF9ZJhzSf47y3HIqp6QRwenlUxr1vs5HAhZSMfnr687oH93j7vX9wa0nnqd15M12P/0MAiBCuwasEaDGzB9xHlLVj6FLPN+66e6HR/vqsbVa6dxSBCykOpF9OC+p8ZQCtJF0WprdVdP7YdEhoeCd3wc2OP8xdGohFr2Be+kaeooxu1nH1ju+JVVE/Luj7M7wTtnZpp+I4cEIQupXkT7eyW0e1ug/ubwlo3ub/9pgAg3bwjUxdQcF25b/EI7tog1NBCwz892TiR5rnH1WjOY3AxHLy4o9PT4WCcSmzzV1ewcJmRpvTB2JiELKe90vTCGdjT7P0CMjUp408NimdG9k7mgth+S8MaH/X9rSI+D0M6tEtre7H5drZvwI/eJ1dPl/4DV2Sbh9fcHt7+evyxx/PGoqMzTA9aS6PQ5btYwo98/j0MjvXyTWjWBm8cpZmsxg5kEaXC1hqSC1q5tEmrZL1H73r15cibsn4vh6KiIXvRDrQfsoJXSttpapOC+9vi0K2Yqn8JC/xw5kYhYfb1iHTog1mAKrVFDgxJe9y97+h4zYGOsuCQ+t6QfRGNiDQ/at5tdTllytNl6froogNeXXi27m5vWtHnwvTme7M8+P+br4Tttpv0FysUXg9douYNolMbrUZ4Hq3m6eL2WF7n50AAAsma/lj9r+ZEGrns8cu34ojh8oi66aLmGlVl5W/mh5g3xfoTODGqZrPupj8M2PfKyJUs/IGY2V/MhebUEq9UKAPKNeWrtdaboufs+Xb5TL+LrcvyeZjt9oZlkPZ/FzDydzkOW6cR1tZYfc9imKeTmYcC6QhebJN6sScACgPxxjpYH9Dz+kRzPmed8hvCSsryu8FhVjdtJ41/MYRrQkKUfStNydbuWiew6AMjb685ntHw3h0FrtqNXmel03D2h582g1eBqCKzLdL+UcJgGLGTpTr9MFzcLT0QCgB+8Sct/5+BaYmZQrncUTkzA8sFDHFEznINz5v7opRyeAQpZ+qEwH4ifErAAwFfMbcNsX9BrHb+yqNgftaxhMVbj6gbQFRyaAQpZ6nOuPhgAgHzxv1keBNN52igs8k0lxya5Gu2HlqyghCz98JnR1K5jVwGAL83V8qos/r46x8HELy1Z5m+prXfz8oV67Z3OoRmAkKVeK/F5lQAA/vSGLP4u53dF/NSSVVbudnqg53JYBiNkvYDdBAC+dl7j6rXZemrc+Tw5YX99vzezMrhwLoelz0OWfujM14hT2U0A4Ptr0Wmeu+6F/TVfcmyCq67NZ3FYps7rR9CcpIKgmRizYbo9NkisXL+0hHw0L9/IsEhPp4T27hSrtzu1D1z91Hg9mYHqfHQyscyEzmbuwv27xOrqSP3EVD1RotNniVSZuQv9c/vAzGdm9fdKqGWfWGaex1QmDC8qluiMuUfNXeiTB4FjUbGG4nMXhvbtFBlNbS5Mu55maj1N9HE96bkpyTlDF2j5WxberfOROUP+eqDdnMtcWNa4em15c9OafqKSf0OW+1Hg9CIYWbHKHuXWj2IFusvKyiWi4chM/GlP/ul6rxdIZNnp9onet3VUWiYRDZGhfbsktHVT0tuKzl9iXxT9+ekvsC/0ET0OrCkzJbzxIb04jrmvb13fHE9me748nvScEqus1qA9W8IbHhKruzO57dRO1no6zXetI8+qp2mz4vWkX3RcqvTc3xTyWXdgDfmmb5Y14Cg3mT/etC7eI0iav2K6ZUnklDN9G7CeFQDmLExq4tLIkpW+DVjPqiO9MJp6SmrdWfP8G7COvZhMqJXI0tPdr1deqZ+5M3wbsI77BS6JaVZMa3Fk+em+DVjHXsgjK86yx2ZyKVvz1wR7OraqCW5evZSYlOJ3WV9dKOqnSqx6QqB2YHReo4Ra9tu3fpy2OsTqGoJVR7Pmx2ehHx5ydUFNNpzl7efH3OqrnSxW+yHndTt/sa9ux49/xiyU6NxFEt683t0xGLR6Kiy0Pz+hJx7z5KHuPI3FJOa3z3lltVgt+5y+fJmTFzWuXmsabMwYETO0mOHlTeevCUeVmsTSJO+SRDHM6PKFR+2XI31gzAWtT4s5aXceUw5rOaDFzHq9p7lpzSAhK1sXU3dTB/jmpG8ujtahg84+YJOnBK+OQiGJarA0fbQcH0t19cG6KB75u+unSdhpyDLHXkBaRJ/xGTKDOpq+OtGo48ARxHqKTpoioeYNqfX1y7Ukbp97/vh1N1n0sqOClJkAcX6iLJL4+GbTE8V8c8/JCVPfV0cicD2hpVnL5sRyiwaw0VzXt7/arssqJIhipeWO279jAa0j04+NYym99WSPuWMF8M5LOCyxohKxhgYc1lNAjyVzC9kM5ummBTk7uiTAXIasszTErE8EK68eyBMTZeUxPx/R9/6oLtdpeUDLgxq6mglZqRw8oYBObejm7w5C35njHRsFhZmrU46lYAYIx6EsuFOuxqxQfneAikT8t1MKC+Ph1zypPr6S44SXfGEeBV+VKNebH2joatXFP7TcaYqGrp2ELAAA0sf5uC5jI/4Mv6Vl8eGAgsf0G7smUUzoMrcWf6flNi33a+hK+73tEJ83AECAtDt9oTXiz5AlJWUcBXFLtHxYy71admvo+oKWFen8BbRkAQCCxHlL1qiPW7I4Do5lnoz8gCkatMxjsd/R8rPmpjW9qWyUliwAQJA4bskSv95SKy7hKDg505r1XS0HNHD9j5Y5yW4ouC1Z0aiE9u8WOfKEkGXZYwTFJtTl3zYy9nUnFh9faqAv8QN9bzUT44+w59s2MsyMLWV1tj39uHpZhUSnznT19J1XtpGxOhrsF+vg3qc7E4cL4oPpujjhe2UbGa2nAX1/LUe9PzM2l3l/prNynm3Do/QDIubR/sLxj5UB8SNfTQ+WWeaJyrdreasGrSZdfqq5ac1mQpYDZsyk0JPH1NXenTJ23qWOTyJe2UbGTvaHDkhoy8Zj3tsOiZx1YXxOyFS2cfZFjoeTSMc2MhseBiT82IPH2bkhiU6ZkVfbyOhn7vH1z5pqxertio8OnmfbyGg9bXpYrL6eY95ftz2bRb5tw4v0IhnVC6YZV2neuC82czCasbL89iQtIcstMwbYK7S8XI+dn+vyBj2Odjn6HAW2yoYGj9ti4uqJC69sI1Ph4USdPl10Bj3hNoaHs7qNrB9LJ/u5l7eR0eNpOOV96JVtZLSejjf+lst96JVteNgux/Uw6MP5kYs8ELLMFFNmaJ1ji7eHzzG3BF5lsrqGrc9oGbf5m47vAICgcRyyxISsympf/fGxdM6hqaHIns+zuFjDW4n+W3NHYbHETJArTBQzGb35nXYJO+u+YFoQoxGxTGvi6Kj9EIL9BcmU4SH9EjBodyGxl9mfVcDcZvqIxFu23tLctOZOQhYAAHFPOn2h1dsjMb9N2ea2tcgEKdM1o7zCXtqzPWgxs41krFuLfYtWw9lR2z9ulDJ3fkwQNn0ITegyt7h7uuw+hVlgRsL/mwatr+nyQxq2RghZAICg2+g8ZHX7768/ybysdqtUZZU9/Y6ZTFrKK/Vnpd6dQss8LGYCoAl/9lijCWOjdt9Lu3S2i9Xd4Xy+UffereVsDVsv0aDVQsgCAATZhkCHrCN5qahYYlU1WiZIrLomHqrcTkHmVYkJ7O3J2WcvsJ+Stbo0bLUf1tKaiSdHz9HycCJoPfBUnuWzBgAIEr0I7hOnE0WbAUn90+E/LlwgkXMukbHz/8N+WjQ6e3582CC/BKzj/s1he3ik6MKl9t8eOfMCic6aL2Ja6dLH3Fe+W4PW65/KenzcAAAB9IiWS5y80LSAxBqm++qPt/tVBZhptTMlOq/R3r9mvErrcEs6bimaRzd/oEHrdF2+i5AFAAiiex2HrE7/hSwcFbhqaiWixbRamrAV2rszHVMqvVXLUkIWACCI/u30haGOwxKlvvyvsEiisxdIdMZce5aR0O5tqU6tFKJPFgAgiExLlrPsZMZlGuinxoIiHNagNUfGzrlEonMWnvRpzHH8gpAFAAic5qY1Zs4g508ZtrVSaUEMWxqy7KnkJrqeT9gE+FsIWQCAoPqT45B16CC1FVDmIYHIyrPtscNcuEuD/CFCFgAgqP7gOGT1dPpvKAc4ZsbVOnbC9HH8zPwPIQsAEFT3idPxsswFk9as4Ias/bvdvHxMy28JWQCAwGpuWhMRV7cMD1BpQTQ2ag/t4MJf9djqIGQBAILul45DlpkHz4/T7OCk7HGzImNuVvnJU+tSfQCAAPujFsedbVzeNkK+MwOUmpDlXLuW3xCyAACB19y0xow2+Wunrw+17nfbqoE8Ftr1pH270IWb9JgaImQBABD3c8evjEQkdHAfNRYA5olCl32xTBr7xjNCGtUIAAi4O7XscPri0J7tIrEYteZzoSc3u50w+ubmpjX7CVkAACTohdFcSf/X8QpDgxJqoTXLz6zDLWK1tbhZxTyp+vlnBTWqEgAA+ZHEb/c4uwjv2kZrll+NjUl46ya3a/2fhvVthCwAAI5hpkDRxa8ch6zBfrFa91NxPhTa/oQ9KbgL5sUfP+62qE4AAGxfdHUx3rmV1iyfsToOu+3sbtyoIf0AIQsAgBPQC+UGiY+b5eyCbJ4+27eLivOL0VEJP/GY27VMuPrsCYM4tQoAwFM+7+bFoV1b7QErkf/Cm9e7vU1ovEvDeQ8hCwCAcegF825d3O14hdFRCW1vpuLyXGj3NrHaD7ld7S96vNxy0u1StQAAPMNHXF2gD+4Vq6eTWstTVvthCe3Y4nY1M1PA28Y9NqheAACe1ty05t+6uM3xCrGYhJ7Y4HbgSnghYA30SfjxR5J5gOGG4w3ZQMgCAGB8pjXL8ZXX6u+1bzkhj5jJnx970O3chMa/tHzNyQsJWUDKX4V8tA1wQHFA2Zqb1pjRKL/nZh0zmbDV08UhnA8iEQk/+oD9hKhL3VquTcwSQMg6kVj1xGf/sKhYYqXl2d1G1YSUt5GxOqqoevYPw2GJlZWnvo3yiqxuI6P1VF4pUlDgbN/mYhvVE7xRT5XVjn6W8W1UHGcbVTUeOjdNSPn9HXcbLo+DdGzDB27Q4ryzlbltaJ5Qi0QIMZ4OADEJb1wnVm93Mmu/SQPWLqcvLghsHU+eIpEzL7DnoIp/abPiJzK9eGd1G/VTJWJCSwrbyFgdTaiVyFkXigz0P/XF1r5AFZekvg0NktncRkYVFsnYWRfFP7BH7utrSI5VVKa2DT0u7OCUzW1k8ovj0tPE6mp/+gJkgvKEuuxvY9mx2yiwjzHPfMFefsYz358G51hNbV5uI9/pxbS9cfVac9vwO07XsfQ8Fdq6SaKLVxBmvBywOg4ns/Z39Jj4lZsVCgJd1+YbsMtvwV7dRkZbaVK8SHtlGxmlwTPmInx6ehuZEgpJbOIkf2yDegqSn2j5tBbHad48bWgCaWzKdGrPiwGrrTWZtR/U8i63KxVQ6wAAPFPj6rXm28qbtHzYTcA6Irxlo0Qqq47f3QHZF43EA1Z7Ui1YLVpe2ty0xvWos4QsAACeDlem49n1Wt6hpT6Vi3powzqJrLpAr7SFVGwujY1JeMODYnV1JLO2GQL+Kg1Y+5JZmZAFACBcrV67Shdv1vJKLaVp2eiEiXafP+SONTRgD9Ng9fclu4nrNGA9mOzK7H0E44MmMSoh3WL88cj7YDVNF6/Wcq2WZencdnTmXInOX0Il5/K839Mp4Q3rREaGk93Eu8ebNidQIcsaG9VTX2nwjiQ3A6klf7DlN7d/t/vB6YJ3LI0G9Fgy55oRF10zRkeDW08R7/3tGqxM8rlKy4u1nCnpHhAsFJLowmUSnTqTlJNDoQN77Kc8UxiF/wsasL6e6vvwV8jq6QpkJ0M3g9/ZdRTAJ4bcDhAY1AEFrW4Xx5IZUsOEsqD1NzHDrbgI7WbaDtMn5HhjmPn6WBrs90TA1FBVpotztVyWCFbzM/W7YqVlEl16mqfGXQscDVWhLRvtJzxT8F2JP/CQMn+FrH27RAL27cGMiWR1Ox8rz6T76Mx59retwNTR0IDr2dXNGComRLgZeDXvxWJi6fHh5vWh/Xo8zZoXrG/I5jzj9qRvf+7mBuvc5Lae0h+qLkoU09cq498EolNmSHTB0sCFaU8dc3099mCwVl9vqgHr+uamNWnpE1DguwreuVWicxYG44iKjEnoicdcfwsPPblZoouWBaOO7BGYH3XfZJxYL3LaOYEJpKFtT8RbH9yss2urxGonBaYF2TydFNq3033d6nkpNrEuOPXU2eY+jCYXqEx4Wi7x235nJJbm5Ja90ZxLSiWyaLl+DiaTcnJ5/tqzXUI7tqQ6SXdaA5bvQtaRk5m5hRGd2+iJUdMzdhIzk5E+vt4Olq7raP8usTSgRRYu9fWtHjMnVeiJR5N9bDfeafKR+yS6ZKW/W7TGNKxv22y3trgP+hG7jiKLT5HYpCn+Dg4t++yxj5I6ievnLbze1NMKidU1+Ptid3BvvC9MLH0PB2iYKtLFHC2LtSxNBCvTt0pP9JKbk1goHO/cPnu+/W/k6lrYJ6EtG5I+zx/ly1o+kM6AZb8/L1eefrBW6mJ9UisXFkm0rl6krMJfLREaIM3tQfNNMeWTmJkmQ+soVl7lrzrSC5rpU2VPm5Dat5rEp8Sy+7HZ87b56XFsrRsT1q22lnifoRSZaYTsb/NFJf6pI/MU4fCQ1tGheN+qdGyxospu/fNVPZlz0fCgfVveGuhPditmMubfajFP/E3VMkuLucdq7kebodO9cZIy54OGaRKZs8huxULuzl9mQm7TgpWG8/xHNVz9d0YOlzSFoSP3wE1zrR55YjpGmUmuzAy+qVyVzLeXKRxNAAAvhKvozPmemZw+sLvi8MFE94aBVDdlnsx4vQasH2fsvaYQrMxR9hItr5F450KGtAUA+Eu4QKJTZ0hsxhyJlZRRH7kMVz2dEnpSw1V3Rzo2Z54YW60B6+8Zfc9JhCszh5OZJPHtWqrZ7QAAv4lVVkts2iyJ1k9l1Pach6suCe3aFu/akB4btbxYA9aOjL93F+HKHGVmPiczGzkzXgIA/KWwUEPVNIlNncnEzl4IV90ddr+rJCd1PpFfaXmdBqz+rPwNDgOW6Xj4Sy2ns9sBAL5RVGw/JBWbPEViE+rsvlfIIdOhvXW/Pc6aGQcyjcxEz+/ScPW/WQ2KDgLWi3RhOoUR6wEAeS9WXhl/YrhussRqaglWHmA/6XxwX3yk9tGRdG9+s5ZXaMDalPW/a5yA9XqJP1Yb4hAAAOSlomINUxPtYBU104ox9II3DA/FW61a9ic15qMDZmyHr0p8iIahnITHkwSsNyYCFgAA+cEMtVBabocqqZ4QD1el5dSLV3aPhimrrTVezO3AWCxTv2qLltdquLo/p3/vCQKWmUTz10ILFgDAq0IhiZkBp81AuOZpwMoaLVU8DeilUGXGsurqiHdiN3PIDme8Qcn8gs9p+WKuWq9OGrI0YJnBRB/WQvQHAORecUm8dcpMb1VaFg9Wpl+V/pv+VB4yMhxvqerrFau3Kz7VzXBWc86tWt6j4WqnV6qk4JiAVSzxpwhTD1hm3kCLhjAAwHGYVihznTDzpxYViRQWS6yo2P63vdRgZfpOxYpLAzNJe1qYKbIKMtiSZ6Z2M61TQwO6HBQZHLAnlrf7VGnIyhEz/d4HNVz91Wu749g98T4tK5LZkN1Ua8YXmVAbn3KACTMBAMieoUEpuC8xgLmG11hhkT2Prxn/y/63CaummNa/I7dUzTKSmLvU9I868m8zt6l5yi9RrNHR+L/TMR9s+mzXcoOWX6V7Yud0eaqdtXH1WjMBp+ko5mreABOuoguWxB+DBQAAORHascUevDMAtmr5opabNVyNevmNHt2S9SG3ASs6a75E5y7injgAALkUi8XHmPI301/881p+o+Eqmg9v2A5ZifkIX+cqYC1aLtFpsziwAQDIMSs7T+7lgmmp+o2W72qwuivf3vyRlqxrtTgenS06ewEBCwAAjwgd2OO3P2m3xMfqvEnDVWu+/hFHQtY1TleIVdVIdM5CjmgAALxgeCjekpX/zEzQt2j5mZZ7vdqZ3VXIaly9tkGXq5yuEF24lD5YAAB4hN0XK5a3eWS/ljskfkvwTq93ZHcdsrQ8x+mL7ekJqiZwRAMA4JWQlV+3CiNaHkgEqz9oecwPLVYnC1lnOw5Z9dM4mgEA8Air47A9PpaH9Wsx8wfeo+VfWu7TUDUQlP1jQtYCxyFrQh1HNAAAHhHa76lWrINaHtOy4ahls4aqsaDuHxOy5jrbk6H4PFEAACD3zFyBbS3Z+m2m9aktUcwv3XlU2aVlh4apLnbKs0NWlbNXFtLhHQAAjwi17HPb4f21WsxwCCWJ/2/mKzbDN5l+Ur2Jn5nbe6OJn3VraTdFA9QQNZ5cyKp08sIYcxECAOAZlrtbhes1KK2l1rIchB3vzGiE2gIAwAsBq7NNrMF+N6t8h1rzcMjy2MzbAAAE9+K9b5ebl5tbgT+j1nITsnqoBgAA8oQZ4b3N1Uwza5ub1vRTcbkJWQ6bqGLUFgAAub5wm8FH3XV4/y615vWQNTZGbQEAkEsarlyO8H5Pc9Oax6m43IUsbhcCAJAH7HGxhl2NpkArVo5DlnMRnjAEACBnF213Hd4Pa2mi1nIbsnodvzrGE4YAAOSC1d8rVme7m1V+2Ny0ZoSay23Icj6zJP2yAADITchy14plesZ/j1rLfchyPBs2A5ICAJADY6PxaXSc+3Nz05odVFzuQ1a341czICkAANm/WB/Y67ZfNB3ePRKyuF0IAICHWft3uXm5JjK5nVrzRshyfLtQIoQsAACyGrDaWsUaHHCzyrebm9bQv8cjIcv5OFljo9QYAADZvFDv3enm5WYQre9Ta94JWY77ZFncLgQAIGusPjNsQ5ubVX7a3LSmnZrzTsjqcPxqWrIAAMjeRXrvdrer3EiteStkdTkPWbRkAQCQFSPDYrUecLPGXc1NazZScd4KWZ3OQxYtWQAAZOUCbQYfdTd00jeoNe+FLMctWdYoo/MDAJBx0YiE9u92s4YmMvk9Fee9kOW8JWuEkAUAQMYvzgf3irhr2LiRYRu8GbKcP7ZASxYAABlnuRu2wYwScBO15sGQpcnXjPjuaJQzbhcCAJDhgHW4RayBfjerfF+v5b3UnAdDVmLZ4ujVhCwAADJ7Yd69zc3LzWP/dHj3eMg67OjVsZgGLZ4wBAAgE6zOdrF6utys8qvmpjV7qTk/hCxzAIwMU2sAAGTiouyuFcv4GrXm/ZDV4niN4UFqDQCANLN6u8XqOOxmlX80N61ZR815P2Q536u0ZAEAkP4L8h7XU+h8kVrLj5Dl+H6uNUzIAgAgnazBAbEOHXSzymNa/kzN5UfIcj450vAQtQYAQDpDlumLZR4uc+4LzU1rYtRcfoSs/Y4PhBFCFgAAaTM0KKGWfW7WMCOV3kLF5U/I2ufmYAAAAGm6EJtWLHcTQX+5uWnNGDWXPyGrVeIDmo3LImQBAJAew0PxeQqdMw+q/R8Vl0chK3Ff11m/LPN0obvEDQAAjncRNk8UurumfjUxHR7yJWQl7Ha6Eq1ZAACkaGRYQvv3uFnDDAX/TSouP0PWLsdrDQ1QcwAApHIBtvtiRdyscmNz05o+ai4/Q9YOpyvRkgUAQApMK9YBV61Y3Vq+TsXlb8ja6XitQVqyAABI+uJrWrEirlqxvt3ctKaLmgtAyLIG+qk5AACSYcbF2r/bzRrmovtVKi4gIUsGCVkAACR14XU/LtY3m5vWtFFz+R2yzKjvI05WsghZAAC4ZuYodNkXy1xwv0bN5XnI0pRsYvWTjtYy95GZwxAAAHcX3Z1b3c5RaFqxWqm5PA9ZCVvdpHEAAODwutnfJ1brfjer9Gr5MjXnn5C1xfnB0kvtAQDg9IK7c4vbVqyv0hcroCFLBhgPDQAAJ6yeLrEOHXSzCuNi+TBkOb9d2E/IAgDA0cV222a3q3yJcbH8F7KanYcsbhcCADDu9bKtVayuDjertGu5kZrzWcjS1GyOAmdPMZinC8fGqEEAAE4kFpPQ9ifcrvU55ij0YchK2Og4ndOaBQDAiS+yB/e67V6zV8u3qDn/hqxNjkNWXw81CADA8UQiEtqxxe1aH21uWsNAlD4OWY5bsoSQBQDA8S+we3eIjAy7WcU0cvyYmiNk2axeQhYAAM8yPBSfo9CdDydmX4GPQ5Z5ztTRaGlWf4/bgdUAAPC98Pbm+BR0zt2jAet2as7nIUt3spmM0ln81gOIyaIBAHiaPfBoyz63q32QmgtAyEp4xPEWuGUIAMDTF9atm9yu0tTctOY+ai44Iethx4m9t5taBADAXBMP7rNbslwwPeM/QM0Rso5/QPV0UosAAETGJOx+4NGvNzet2UnlBStkrXccskxLFp3fAQBBv6Du2uZ2yIZDWj5LzQUsZGmqNs1TzpK16fzOyO8AgAAzD4HZ42K5YwYepWNz0EJWwkOOD64eJgoHAAT4Yrplk0jU1RBXZkzKm6i54Ias+x1vhZAFAAgoq/WAWB2H3a727uamNRFqj5A1/gHWTed3AEAAmc7uTz7udq3fasC6k8oLdsgyY2WNOApZpk/W6Ci1CQAI1kXUjOzurrP7oJZ3U3MBD1masofFxaCkVncHtQkACAzzdH1o/263q31Gr6+7qb2Ah6wE57cMuwhZAIAAXUC3bHQ7hJGZsu7L1Bwh64h/E7IAADjm4rl/dzJP1r8jcZcIhCzbvxyHrL5ukSgPSgAAfG5oUELuR3a/TQPWn6g8QtZT9IBo0cUWR1uKRnnKEHkhrEf9rOqwnFpfIOfPKJSzphbK8kkFUlsaonIAjH8OMbcJx8ZcxTIt/0nNBU+Bg9fcpWWRk41ZHW0Sm1BHrcJTLC2nTymQS+cUydlTC2RRbYEUnCBP9Y7E5OGWMbl/36jcsX1EDvZFqUAAT59PWvaJ1X7I7WqfZn5CQtaJ3KPlzY4Ovs42ahSeUVJgyTVLimXN8hKZXuWslaqyyJKLZhba5YPnlsm9Gra+8/CQPHCAIUqAwBsZlvCTm92utUnLl6g8QtaJ/NNxwjeTRY/pxaigkJpFTl25oEg+oiFpUlnytwBNC9h50wvtct/+UfnE3QOyo4t+h0BQhbdqXhodcbOKefTwjc1Na/iWFlDjXoH04Nini+3ODqeYWF3t1CpyprrYku89v1K+dmlFSgHrWOdMK5TbX1Et1y0voZKBALIOHxTr0EG3q31Lr6H3U3uErPH8xfGB2MEtQ+TGnJqw/P7l1XLxrMy0pBbqp+Wj55fJVzXAFdJHHgiO0VEJmwmg3dmv5QYqj5DlxN8ch6z2w9Qqsq6xNiy/vLpKplZkPv28cEGR/O/zKwlaQEDYtwlHXA9v9bbmpjU91B4hy4m/a3H0mJU12C/WQD81i6yZURWSH15ZKRNKrKz9zgtmFNotWiGL+gf8zGo9oGW/29XMBNC/o/bgKGTpwWKGtX3Q8UHp/vFWICnFYUu+fXllWvtfOXX5vCJ5y2ml7ATAr4aH4mNiuWOmP7meyoNR4OK1f9VytuOQNWMOtYuM+8A5pfatQqfMNGPrtxySBx5vkR37umVweExCIUsmTyiTy86ZJWcuqXf1+//zzFJ7mIdHW8fYGYDPhDc/Gn9i3p13JgbyBlyFrD9r+aijkGWeMIxE9AgNU8PImCV1YXnNMmdP+0U1XTXd+aR8/7ebZN+hvmcfs5bISy6e7/o9mNuFn76wXF7c1C0Rxi0FfCO0d2cyYz/+TgPWT6k9JBOyzGOophl04vhXtKh9cMbq6qlhZMwHzylz1Ceqpb1f3vXVu+WxrSd+KOO8FVNlydyJSb0P05J21cJi+U0z874CfmD19yYzN6G5Pr6F2sMzwrrTF2o6N6Mw3uH4ID1MaykyZ0V9gZw7ffyhGnYd7JFrPvLHkwYsY9XShpTez1tOLaETPOAHsZiEzG3CqOum6bdzmxBJh6yEPzjecFtrvAMMkAFmupzxdPYOy+s//Vdp7RgY97VV5UUpvR8zRteqqcx0AOT9RXFHc3z2EneaNGD9nNpDqiHrT1qczSsyOiJWVwc1jLQzTxRePnf8UPTpHzwgBw47G05kb2tvyu/rqoVF7Bwgj5lxHkO7t7tdzXTc4mlCpB6yEkM5/MvxAcstQ2TAyvoCqSg6+b25R7celj/eu8vxNv/6wB6JRFJreTVjZwHIU2by5yceTWbNN+m1kVG4kXrISvi94423EbKQfmdMGf95jbW3b3a1zT0tvbL2D5tTel/15SF7YFQAeSYWk/CmR5IZ1f37GrB+SwUinSGryfErhwbF6umilpFWC8cZF2t4NCL/WLfP9Xa/8pNH7GEejscMAXH3+vFHfV4wkWFLgLy7EO56Mj70kDtbtbyb2kNaQ5am9j26eMTp661DB6hlpNV4rUVP7Oywg5ZbJkh99Lv3yXUf/7Pcds8O2b6v2y53/HuXXPuxP8u7vvLPcZ/lmFFFyALyiRluyIQsl8zow6/U6yFzyOGkCpJc7xYtpzlKca0HJDp/CTWNtKkpPnnISrUT+0ObW+1yPIe7BuzR4U+kuphxHIC8YfphPb4+mSfhP6oB6xEqEONmoCTXu9XxK4eHeMoQaVU4zlHbNzCasd/d23/ybVcUErKAvGD6YZnxsNz3w7pLyxepQGQsZGmCb9bFJqevT2IGc+CExsYZI7CspCBjv3u8bfeNMjYckBcXv51bxepw/VBgp5Zr9RrIJFrIXMhK+KXjX3LoIAOTIm26hk9+fps2qSIjvzccsqSupvTkIWuE4xzwOqutNZl+WMbrNWDtowaRjZDlfHRbMzBp+yFqG2lxoPfkIWvJ3FopCKd/KIXG2ROlsGCc/mA9fMEFPB2wBgfitwnd+wrDNSBrIUsPNjMs7gOOf9HBvdQ20mJb58mfHDS39M49ZUraf+9zV80Y9zXbOyPsIMCrIhEJbXxIZMx1v837tXyYCkTWQlbCzxx/ezBzGY6OUONI2QMHxsZ9zasuX5TW32lasF56yfyTvqZtMCo7uwhZgFeZEd2tPtdPH5sBtF7R3LRmlBpEtkOW6Zfl7P6Imdm8hQ7wSN36ljEZGjt536cLT5suZy6pT9vvvO75i086dINx774xoUcW4NGLnRlw1PQPdu/axPiQQHZDlh54ZjChO52+3uKWIdJgUAPW33aO/6Xyv68/VyrLU5+0ecHMGnnHNSvHfd1tW4fZOYAH2R3dd2xJZtUv6HXuj9QgchKyEn7o+EDv6xGrt5taR8p+sXn8QDOzvlL+530XSUlR8qOwN9SWyXc/9FwpLjz5Ng72ReWefdxNADwXsPp74wOOune3lhuoQeQ6ZJmBSR1PUGjt302tI2UPHBiVx1rH75t11rIGufmTl8mUunLXv2P5/Dr5xWefL1Mnjb/u99YPSYQHCwFvGRmW0GMPiUTG3K5phml4eXPTGjpZIiUpT7TWtvnWsbolV8/Uf57pKGQN9El0xhyNdyFqHynZ0RWR1Y3F476ufmKZvOTi+TIyFpXmnR0ahk7ec6qmslje8YqV8um3OLvduLs7Ih+5q18idMgCvCMalfBjD9otWS6ZZvLLNWBtpRKR85BlaMgyg2C9ydGLzaCkxSUSq6qh9pGSA31RmV4VksV144/wXlwUlvNXTpVrnrdIpk+utP9/RFORCVwVpYUyo75SzlsxVd744mXyyTefY3eaD4WcTZHzrr/2y65umrEAT13czJOEyY3P+AYNWHdQg0iHtE201rh67QZdLHeUs8orJXLWhdQ+UlZeaMnvXlYls6rDOfn9Nz02JJ+/d4AdAXiI6eSe5IjuN2rAehc1iLQdi2nc1vccJ7v+XrG62ql9pKx/NCZv/VNfTqazuXffqHz5fgIW4KmL2sG9yQasu7S8jxqEV0PWzVr6HP/ifbuofaTFkx0ReeMdvTKYxcmZNxwak+s13I1xlxDwDDPhc6h5QzKrmieyXtbctGaMWoQnQ5YenD26+KnjD8PhFrGGaAVAeqw7OCav+X2vdAxmPmj9a++o/bv6R+npDngmYPX1SHjTw/F+v+6YC9GL9RrWRi3CsyEr4duOX6kfBGvPTvYA0sa0Ll3V1C0Pt2Tmy6g5dX/74UF5wx+y22oGYJyAZSZ9fvQBkTHXn33TFv1KDViPUovIhLT2Fm7bfGtr3ZKrL9V/znT0wejvk+j02QzngLQxfbN+u3VYuodjcvqUAikKp+fZjub2iLztT3267RGmzgG8ZHREwuvvE2toMJm136MBay2ViLwIWYaGrCFdvNRZ04B+iSgslFj1RPYE0sbcLXi0dUx+uXnYHrtqwcQCKSlILmxt0XD1mX8PyKf/NWCP6g7AQyJjGrDuT2YsLOPbGrA+RiUik6x0b7Bx9VozeuMuLVMcrVBcImPnPlfficXeQEaYWXUumV0kz51dKOdMK5T68hO3nJpxSje3jcl9+8bk9m3D+m8GfAY86chgo51JdaUy8xG+kBHdkXchKxG0PqKLzzj+rDSeItGpM9kbyIqaEkvm1oSltjRkj7M1psmqbzQmLX1R2dkVlWGGbge8LRaT8MZ19sTPSXhMywUasHqpSORryJqgi71aHE0YFystl8jZF9GaBQAYV3jzerFa9iez6kEtZ2nA2kstIhsy0uNcD+BOXdzkOOkN9ovVup+9AQA4+UVry8ZkA5YZZuhKAhbyPmQlfF2L4/vdod3b2RsAgBNfJ7ZuktD+3cmsOqrlpRqwHqEW4YuQpQezGQTrN05fb0+103qAPQIAePbFantzsjOFmE6Wr9Fr0t+oRfgmZCV8ydWbMfNNxeh0DAA4JmDt3pbs6u/WgPUrahG+C1l6YD+kiz87fb3dmtVC3ywAQFoC1mf0OnQjtQhfhqyET7h5cXjnFlqzAACpBqxvasD6L2oRvg5ZepDfLy5as2RoMNmOjQAAApZxs5Z3UovwfchK+ISrN2X6ZkUYiBcAAnlhevLxVALWb7W8Tr/gc0sEwQhZidasuxyvMDIsoT0M6QAAgRKL2eNghfbuTHYLt2m5hulyEKiQleBqIk47ZA0PsYcAICABK/zEo6l0F/mHlpdpwBqhMuEV4Wz9orbNt+6pW3L1GfrPhU4/cNbosMQmTWEv5TFrcEC/le6wv5mGWvaLNdAnUlIqUlhE5QCIM5M9b3pYrEMHUwlYZjR3vpnDUwqy/Ps+rOUF4nDORDOcgzV9jsSqathT+WZ0REI7tkrowO5nPC1qtR8S2b1NovMaJTpzHvUEBN3YmIQ3PiRWZ3uqAWuAyoTXhLP5y9o233qobsnVs/WfK52uY/X1SmzqTPZUHn0jNa1W4U3rxOruOPF+7WgTKS6RWGU1dQYE+MtY+NH79VzRScCCL4Vy8Ds/rsVxk67V0ymhg8znmQ+swy0SfvCfEtq22f52Ou7Bt72Zp0iBoJ4vBgckvO7fYvV2E7DgW+Fs/8K2zbd21y25eqL+8xzHH0b9lhM1rVnhMHvMiyfLjjYJP/6I3ffKGh11vmI0IrEaPRTKyqlEIEjnDA1W4fX3izU8mOwm7tTyQgIWvC6Uo9/731qc34A3/Xu2P8He8tqJsqdTT5T3xZv7e7qS/DbbT0UCQTpvtB+S8CP32kP1JMkM0/B8AhYIWSegHw5zA97VdAehA3vE6upgj3nhJNnZbn8LtZv6k++saosVFFKhQFAuOHoeD294KJVuAr/UspphGkDIGt/3tTzq6s1u2ci8hjn9BnpYwg/fa7deWZ1t6dmouV0IwP8Xm+1PSKh5Qyrn8Ju0vJqAhby6bubylzeuXnuBLu52s050zkK7IEvM04Kt+8Xas0Os/t60bjpWP1UiS0+jjgFfn0MiEn58vf1gTAq+puW9TJUDQpb7oPVzXVzj/B1bEjnzAolVVLH3MslMbbR/d3z05eT7Tpw4YOn+i5x2rkhBAXUN+NXwkH17MIUnCI2Pa7j6FJWJfOSFK9z7tbxQi7NHzMzcVpvXS+SMC0RCIfZgulN3Z3u8/9vhg3YrVvp/QUjOOGuB7KhdIIcGqW/At+eSni4Jb1yXyvRo5gT0Zg1YP6A2ka9yPiZC2+Zbe+qWXG0eMbvc8Yd3JH5LPjahjj2YDubpTQ1WoSceiw/DYG4LZqDv27S5U+WmGy6Rt1wxT+ZNLJDbnqRrBeDLgNWyLx6wxkaT3YT5CmYmev4ZtYl85pV7Nd/U8motZzpdIbR7m8QmNTBieNLfEaNitbVKSE+G9lQ3GXygoGxCtXz4tWfI6nOnPfWzi2YWyksai+U3zcPsC8AvzJ0G08F9z45UtmLuLZoxsO6hQpH3Xzi88kYaV689RRcPuwl+sdJyiay6QCRMvx6nJ0DzVKCZhDV06ICjUdlTUVheJtdedYq898ULJGQ9+1DrHYnJFb/oltb+KPsGyHejo/agxFbH4VS2slvLFRqwGBgRhKwMBK3P6eJDrnJDw3SJLFnJnjwR02LV2a7B6oCEzNM9yTffOxYuKZarL18mH3vFYiksOHm/uX/tHZXX3d4rPDIE5PGFxIzgbm4PDqXU0dJ8yTbT5LRQo/ALrzUBfVLLai3zHX+4ze2uiZM0bE1jbx4xPCSh9kP2bUB7IubIWFZ+baioSC69qFE+c+0yqShxdmidP6NQXrGkWH6xmduGQD6y+3Nu3ZTqgzJmFPdrGMUdvvsC4rU31Lh67bm6MPfinT86GC6wbxua24eBpCHK6urU0maHqhQfl3bNtFxdeekS+fg1i6W02H1uHxyLyYtv6ZEdXUwWDeSNaERCWzZJ6ODeVLd0o8THwOIEAEJWloLWZ3XxYTfrmA7wkdPPC8awDqMj9uPRZuJs+1ZgT2dORsI3fa5ectkSueFljePeFhxPc3tEVv+6R4Yj3DgEPH/h6O+V0KZHUh2g2PRdeLuGq+9RoyBkZTdkmQntHtKywlXQmjJdIot91j/LtFL19Wrpjk/CbILVQG4nVa6ur5U1Vy6WNz1vjoRD6TuEfrppWD5xDxNGA56+aBzcJ+GtG1OZf9AwE9G+VAPWXdQoCFm5CVrLdLFOS7GroFU/VaINM0RKSiWmRcLh/NgTesKyBjVgDPTpt8O++DfEvp6cB6qnjxRLZs6fJu9/+TK5dOXkjP2at/2pT/6yk/GzAC+eo8JbNtr9YFNknhw0QzRsp1JByMpt0HqvLr6c0kYKiyRWpDmtuERL8VP/fupnBfrfCwvt14mVoeowt/LMLT4tplO6ZZ7A0WINJ5aDA6k+lZMxhWWlcv7Z8+SDL22UWZPLMv77eoZj8sJfdcuBPoZ1ADxzoejpkpCZf3Aw5S99t2q5TgNWL7UKQlbuQ5Z5f3eIi9HgU1JQoIGrKB64TPAKF0rMtISZ+fXMWFzHC2EmQJmn93RhRUbjY0+ZZnTzs9HReLAazbOWGf07G2Y1yJorFsp1F8887hhXmbTx8Ji88re99M8Ccs0MLrpnu4R2bElHv8+PaflvJnkGIctbQcvMnfOoFsZoyLCyidVy8dlz5V0vnCfT68py+l5+s2VYPvh3+mcBOTM0KOHNj4rV1Z7qlkyr1Ws0XP2eSgUhy5tB63xd3CUemGvRb8ztwBWnzJS3v3CBnLVwoqfe26f/NSA3bxxiJwFZZoZlCD35eDpmhdgo8Q7uT1KrIGR5O2iZkeA/xy5LXVFFuZyydLpce+kc+Y8Vk8Xy6FEQiYpcd1uPPHhgjJ0GZMPIsISbN9jzmqbBWi1v1YA1SMWCkOX9kGXe6x+0XMFuc6+itkZOXTZNXn3RLLlwWV3evO+OwZi85Nfdsr+XjvBARi8Ghw7aTw+moQ+pmb7hHRquvk+tgpCVRzRo1ejiAS0L2XUnFyoslKkzJ8slZ0yX6y6aIdNy3McqFWag0lfe2iN9I/SXBdLOtF6ZoRkOp2XKwG1aXqYB61EqFsizkJUIWo26uF9LNbvvqB0ZDsvk6ZPk1MX18qJV0+TCZbVZfyowk8xE0m+8o1fGaNAC0vdlzO57tTldE8f/VMtbNGD1UbNAnoasRNB6vsQnFA0FdceZKW2mTq+VUxdNluetnCzPWVIn4bDl67/5183D8qF/8MQhkPKJf2hAQs0bxeo4nI7NmQ/l2zRcraVmAR+ErETQer8uvhiEnVRUWSGT66tlwcyJsmphrVx22iSZMqE0kAfsjQ8NyjfX0Y8WSIo97tUOCe3amuq0OEes1/JKDVhbqFzARyErEbR+pIs1vtgToZCUVlXIhImVMnNKlSyYXi2nz6uW8xfXSnlJAUfqUcz4WWYcLQAuTvbdnRIyTw72p2WwdXPj/ktaPqoBa5TaBY4v36/eb9TSoOUy92ccS0qqKiUWGZPRoWGJjkUy9iZDxcVSVFwkJeXFUlFeIhOqS2RaXbnMbqiQhVMrZMWsKpkysVQsiwPSic9cVC6dQ1H5x27O7cC4RkcktL1ZQgf2pGuLZkNmapx/UrnAOFEj3/+AxtVrK3RhPuynuV23pKxYvvOpF8nZs0olEo1J/+Co9A6MyOHuYWnpHpH2nhEZ058PjYn+txFdxuyZJQZHIlJa9PS4qJVlhVJYEJLK0rBMKC+UCfr/66qKpKFGQ5X+O0R6SjuzL17/h17G0AJOxNwaPLA7PiXOaNq+kPxE4sMzdFHBQABCViJo1eviXi1zXQet0iL56kevlIsXVHA05BkzpMNrb++Vx1oJWsAzTuzdHRLaskmsvp50bdKMTmqeHLyV2gUCFrISQWtBImi5HmmzsKhAPvX+K+TFKydwRORh0Lrm1h7Z0h6hMgAz3+D2ZrFa96dzq00SH7m9jQoGAhqyEkFrucRvHbpOS+aO3vve/h/yuudM4ajIM51DMbn29wQtBFhkTEK7t9tPDko0bZ8DM76DGZrhFioYSI6vJlxu23zrobolV9+l/3y5lmK369/74A7pCJXJBYtr6YSeR0oLLLliXrHcvXdU2gcZFR7BYjq0hzeuE6v9kN0PK01u1vIiDVjrqGEgeb6MEo2r156li79oqUpm/edcuFS+9ubTpKyQpJVPTIvWdb/vsafhAXx/8m5rtZ8aTNOQDEeYJwffpOHqz9QwQMg6WdC6RBe3a0lq1M4FC6fKtz9wkUyvZoyqfEJnePj+pG06tZtw1dWRzs2abybf0PIxpsUBCFlOg9ZzJD79TlItWtU1ZfL1G66Qs2eXc6TkETO8w5vu6JP79jOOFnx0su7vjYerttZ0b/pBLW9mUmcg/cJ+/uPaNt+6u27J1X/Tf75ES5nb9YeHRuX2O5ulYNIkOX12JUdLnigIWXLlgmLZ0RWRbZ3cOkS+h6s+CT+5SUJbHxdrIK2NTN1a3ivxJwcPUtNABj6/QfgjG1evXaaLP2mZluw2LrxoqXzhDadKdXGIoyZPmC7An/33gPxowxCVgfw7OQ/0S2jnFrEOHUxnh/Yj/k/LhzVctVLTACErHUFrfiJozUt2Gw1TJsiX3n+pnDGjlCMnj/zfY0PyuXsHhOcOkRcn5f4+Ce3eFh/rKv3hyjwt+HYNVw9Q0wAhK91By8xzaPponZHsNsIhS974/54jb79sloR5+DBv/HH7iLz3b30yGqUu4NGTcV+PhHY+KVZbSybClRnz6gYtN2nA4lMAELIyFrRM3ywz/9bVqWxn6fJZ8rnrz5UFdYUcRXli3cExeeufeqVriDYteOgkbJ4W3KXhqv1wJjZv7pV/XcvnNFz1UNsAISsbQct0+P+ilveksp2iogK5/vUXyhsunkarVp7Y3xuVt/yxl7G0kPuT7+GDEtq9Q6yezkz9il9IvN/VLmobIGTlImy9VeJjw6Q0GFZj4zT59NvOl2UNxRxReWBwLCYf+Hu//Gn7CJWB7IpGJXRwr1h7tos1OJCp32LmcH2vhqv7qXCAkJXroGXG0vqVlvpUthMOh+Sal58t73zBXKniCcS88K2HB+XGBwfpEI/MGx6S0P5dWvaIjGYs3D+u5SMarn5PhQOELC8FLTMrtJlp/txUt1U7sVLe9cbnyEvPqKVy88Cdu0bsVq2eYaIWMnCC7eqQ0L5d9q3BDHRmP2K3lo9r+TGd2gFClleDVpEuvqzlHenY3pKlM+T9rz1Lzp5dRuV6nOmn9c6/9MmGQ0zFgzSIRCR06IBYJlz1dmfyN7Vo+byW72i44t43QMjKi7D1Cl38r5bqdGzvwguXyHuvOUUW1BVRuR42pt//v3DfgKzdMMTtQyR3Mu3vFWv/bgm17NcDKqNTOplw9QVzntJwNUjNA4SsfAtasyQ+zMP56dheyLLk8stXyNtfvFjmTGTIBy/7x+5Ref+dfdLN7UM4EY3aI7KHDuxO94TNx9Ou5UtavkG4AghZ+R60zDAPH9LyCUnx6cMjwgUheeELTpM3XLFA5tUStrzqYF9U3qdB68ED3D7ECU6cPV1iHdwrITMq+1jGjxPTcvUVLd/VcNVH7QOELD+FrVW6WGv+ma5tmpatSy9dLm++arEsqWfYBy8y7Vg3bxiSL90/KMMRWrWgRoYl1LJPw9U++9ZgFuyQeMvV/2m4GmYHAIQsvwYtk4T+S+ItWwXp3PbZ5yyU175omVw4v4KK9qCdXRF53539dIoPqkgkPmhoy36xOtsy+YTg0TZr+ayWX2q44sADCFmBCVvLdXGTljPTve258xrkNS8+Va46vU7KCtktnrrO6nX1e+sH5RsPDdod5OFzGqSsjsPxVqu2VjtoZcnftXxVyx0arrLefKrnt0pdPE/LIi2TJd4HbJuWP+v76eDAAAhZ2TgRmb5a/ynxvlqV6d5+RUWJXHXlqXLNRbNlPv22PGVrR0Q++s9+eaSFxgVfBqvOtngndjOm1ehotn6zOZh+qeUrGmTW5+icNkniLfVv0XK8x6BNyrxZy0f1Pe7nYAEIWdk4MZkBTE1/iVdn6necsnKOXP28xfKCFbVSWcSu8opfbh6WL90/wBOIBKtUmJahH2j5Hw0u+3J4HjOt8maE+AYtrVq+p+VOLWa26lotZkaMN2mZqaVLy0v0/f6DgwcgZGXrJHWexJv4V2Xqd5SUFMlzL10uL71wjj24KTst9zoGY/LZe/vl91tHGFcrn0TGxGo/rKGqRZeHMj2e1fE8aoKVlp/nehgGPXeZh3ke0FJl3o8JU8d7elFfV6qLG7W8UYt5zxfo6x7mYAIIWdk6WZl6NIOYms6qczL5u6ZMnSgvuny5/MdpU2RpPQOc5tp9+0fl0/8akCc7IlSGV5l5A9taxWrTYNXZbo9tlWXmluCvtXxTw8m/PHTOMu/FTCX2Gy2rE/82XxbNQMwFiUBlQqHpkzWm65hbhtdq2aDlVKbwAQhZ2T5xmdTzei0fk3jze0bNmDVZLrtkiVx+egOBK4dMx/hbnhiWrz84KO2DXHdyztwG7O60W6rs0teTq3eyU+K3BH+ogaTFY+eqK3Rxh5Z+LbP1/bXpz27Vf1+VCFem0iYnrhF/0v9+hf73Gv33rkQIe5n+rImDDSBk5eIEZprXr9fyvmyEracC18WL5TINXMsaGHsrF/pHY/KdhwflRxuGGVsr20xrVcfheKjqaMvFbcAjzC++NRGu/ubV1h49R5mx/66T+ACnb0387EjIulp/dqv+/7P03/cnVjFBbLf+zNw2fKeWW/T/v5wDDzi5Aqog/RJ9Lb6iJ6Rv6/LNWj6gZUomf+fe3YfkBz8yRb9+1tfIeectkotOnSLnza2UcjrNZ0V5oSXvO7tMXrm0RL7ywID8YduIRMlamTE2Fu+0boqGKmsg5wOhP65FP31ys37+D+VBDZ6eWP7zJK8xHeFNSDTns86jXm9C1koOQmB8XH2z863R3Mt7lZb3aFme1RRdWCCnnj5XLlo1Wy5YXCsL6hgWIlu2tEfkxocG5W876RyfllBlbgF2tceDVW93tgYGPRnzhKDpMP4jDVbr8uyc1Cbxpwcv1vd+V+JnR1qyTGA0twtP1XJQyxv0NX9PvOZsXdynpVt/VsOBCYxzDaYKMk9PRiOJb7k/0pPUpbp8t5bnZ+XaNDomD92/1S5mvImGhgly5plzZdXSBlk1r1pm1nAIZMqi2rB8+/IKeaItIv+zjrDlyuiohqp2e9Jl01nd7lcV80Ttmc/yn7T8WMtteTzdTUciZB1vrD8zVIPpq2XGBDRDN0w46r9VJZbMoQgQsjwZuP6mi78lHp82Ycs8rVOard/f0tIpt932sJb4/2+YMkHOWjVPzlo2RVbNrZRpVRwS6ba4jrA1HjMXoGmpEtNaZcqAp67hZnfdJfFWq1/7ZPTz7VoWSHz2ituO+W//ZVq39Bz1//TfP9TyBYk/HWmcmlhu5agFHJzbqILcSjyxY4KWeSpxRa7fT319jaxYMVOWL2qQlXOqZemUEikt4DBJ69WtMyI/fGxIbt06LCNBHPlheEisni77lp+97Om0bwd6kBlD6ldafqGh44DPzjvmwZxvSXwS6kWJIRqO3C68OBGyTAuWua0Y0jJLy14t6xPnqffra77MpxkgZOXTic98qzQD/r1SiydmjA4XhGRh4ww5ZclUWTG/VpbPrJQ5EwslzJGTsrbBqPx447D87PEh6RryaduWCVQmTB0JVKYv1Yhn77CZnWCepjOtNubpuT0+PteY24SmNWvSkcCkP/up/vsFWq48Mp6X/sy0cl0g8anETDO3eWpSd6LM09e08ykGCFn5eAIs18U1Wl6r5Xyvvb/i4kKZv2iaLJpfL4vnTJTGaRXSWF8iFTzFmJTBsZj8pnlEfr55yO4sn5eiEbH6++J9p7RYdukVGR3x/DvXck8iWP3aby1W45xnzBAOZigHc9C9Vv/2n5zktVea4KmlRMs79bX/wycXIGT54URoOp6+IhG6TvPye50+vVYWLZoqc2dOlDlTq2Tu5FKZW1fMvIsurG8dk188PmwP/+DJsbbGRsUa6Lf7UIkJVWY5oMuhQa90THdC37T8WcvvtNzhkz5WyZ5fPi3xyaElETTNFGH3HxnfS/+7Garh7Vpel7hefEf/2/V8UgFClh9PiIsSYcvcTlyUL++7bnK1zJlTb4evudOqZebkcpk+sVimVxdICf29jstMPn3rlmH55RPD2Z+yZ3RErMEBkcH+eKAy/7aX/fnQMnUiZvR1M8K5uf11Vx4/FZiJ88prJD7Z/ZGBk4e0mLG+zNOH5YmfmXGybtB6+w41BhCygnBiPEUXV2t5kXi8hetkauuqZdqMWpk+tUam11fJ9EnlMq22RBqqi2RyRQG3INXjh8fktidH5PZtI9Lan+IA4tGoWMNDdl8pu7+UaYHSYg0NPL2M+KI3vgkKZuBMM9zCHzUcbOGscdLzSZkuTNh6ofm/Eu+rZVr4ntTyB4kPstpFTQGErCCeIKcnTo4mcF2ixTcTGZaUFUvDlIkyaVKlTKqtkIa6CplcUyqTakpkQkWhTCwvkAllYZlQEpbCsL/3s7kZ9+CBUbldA9cft4/YrV3x/xCLtz6ZVibTqXxE/20v48X+twlUJljlb0uUE2bi4ju1/FXirVWDnB0AELKQzsBlnkq8TOJPCZmBT2cE5W8vKy+W2tpKqamp0FImNVWlUl5WJBV2KZTy0kKpKCmQitICqTTL4pCUFYWkqCBk37Ys0lKmJRzK3nvuG4nJSCQmg6Mx6RuO6DIqQ1r6hvTf+v/7hkald2BUevp12T8svX3x0t7RJ5u3t8WDVWQsqIf7rkSoMmPP3amh6jBnAACELGQzdC3UxX8kAtfFWqqpFQeBTYNZuEBDWVmBWAVPNwyWalArdNpkFonKyGhEhkYi+kGLyuDAsIyOxWRsZEQGh0apZPfMrau7jxQNVbuoEgCELHglcJl0cIaW52m5SIuZh6yMmoEHmY5h5vbfvUeFqhaqBQAhC/kSuszggmaajHO1nCfxQQcbqBnkgHma7b5EMSOtP6Shqp9qAUDIgp+C19xE4DLBy7R6macYi6gZpJF5Sm2dlocTZZ0Gqp1UCwBCFoIWugp1sVzL6UcVghecMvPdmdt+G7U8lghV2zRUMUc2AEIWcJLgZcLW0kRZJgF6khHPYkZRf/yoQGWWGxhbCQAhC0hP+KrSxZJEORLAFibCF8da/jMjoe7S0qxlq5YtibJVw9R+qgcACFnIfvgq1sUcLQu0zNcyN/FvU2ZpCVNLntGdCFJHys5E2Sbx23wjVBEAELKQHwHMPOFoWrqmJ8rMRJl+VJlMTaVFnxbT4nRAy0Et+xLLPUfCFLf3AICQhWAFsZJE2JqUCFz1iX83JJZH/9tMahsKSNWYod7btbRpOZwo7YnSmli2JILVfg1QfRxNAEDIAlIJZZUSH9m+5qhlzTE/K0ksTSf+cokPymqemDT9ygoSS3Obs/SYzRcn1nXCTFI8fNT/N0/UmdtxZqBN01HcDPven3idKQNazO24nsTreo5Tjvy8Q0NTD3sbALzr/wswAGEHYF9A2yCEAAAAAElFTkSuQmCC" vertex="1" parent="1">
          <mxGeometry x="500" y="124.76" width="95.5" height="68.48" as="geometry" />
        </mxCell>
      </root>
    </mxGraphModel>
  </diagram>
</mxfile>
